<svg xmlns="http://www.w3.org/2000/svg" width="142.433" height="114.082" viewBox="0 0 142.433 114.082">
  <g id="Grupo_381" data-name="Grupo 381" transform="translate(-465.005 354.726)">
    <path id="Trazado_446" data-name="Trazado 446" d="M465-222.865v17.71h2.537v-7.561h4.378V-215.1h-4.378v-5.373h5.025v-2.387Z" transform="translate(0 -35.639)" fill="#f2f2f2"/>
    <rect id="Rectángulo_1072" data-name="Rectángulo 1072" width="2.537" height="17.71" transform="translate(487.84 -258.503)" fill="#f2f2f2"/>
    <path id="Trazado_447" data-name="Trazado 447" d="M519.989-222.865v2.387h2.936v15.323h2.537v-15.323H528.4v-2.387Z" transform="translate(-14.861 -35.639)" fill="#f2f2f2"/>
    <path id="Trazado_448" data-name="Trazado 448" d="M557.8-222.865v10.67h-.05l-3.83-10.67h-2.438v17.71h2.537V-215.8h.049l3.88,10.647h2.388v-17.71Z" transform="translate(-23.374 -35.639)" fill="#f2f2f2"/>
    <path id="Trazado_449" data-name="Trazado 449" d="M585.335-222.865v17.71H592.9v-2.537h-5.026v-5.2h4.379v-2.388h-4.379v-5.2H592.9v-2.387Z" transform="translate(-32.522 -35.639)" fill="#f2f2f2"/>
    <path id="Trazado_450" data-name="Trazado 450" d="M624.549-217.822h-2.537v-.573a2.7,2.7,0,0,0-.411-1.5,1.516,1.516,0,0,0-1.38-.636,1.6,1.6,0,0,0-.846.2,1.663,1.663,0,0,0-.522.5,2.114,2.114,0,0,0-.274.734,4.739,4.739,0,0,0-.074.859,8.657,8.657,0,0,0,.036.87,1.678,1.678,0,0,0,.187.623,1.393,1.393,0,0,0,.435.471,3.944,3.944,0,0,0,.784.4l1.94.771a4.811,4.811,0,0,1,1.368.76,3.283,3.283,0,0,1,.821,1.007,4.728,4.728,0,0,1,.374,1.355,13.568,13.568,0,0,1,.1,1.729,9.124,9.124,0,0,1-.223,2.076,4.362,4.362,0,0,1-.722,1.629,3.578,3.578,0,0,1-1.368,1.1,4.821,4.821,0,0,1-2.064.4,4.524,4.524,0,0,1-1.716-.323,4.09,4.09,0,0,1-1.368-.9,4.369,4.369,0,0,1-.908-1.332,4.047,4.047,0,0,1-.336-1.653v-.946h2.537v.8a2.081,2.081,0,0,0,.41,1.256,1.6,1.6,0,0,0,1.381.559,2.221,2.221,0,0,0,1.008-.187,1.337,1.337,0,0,0,.56-.535,1.954,1.954,0,0,0,.236-.833q.038-.486.038-1.083a10.584,10.584,0,0,0-.05-1.143,2,2,0,0,0-.2-.722,1.413,1.413,0,0,0-.46-.447,6.2,6.2,0,0,0-.759-.374l-1.816-.747a4.014,4.014,0,0,1-2.2-1.778,6.107,6.107,0,0,1-.56-2.774,6.418,6.418,0,0,1,.274-1.891,4.3,4.3,0,0,1,.821-1.542,3.753,3.753,0,0,1,1.33-1.032,4.438,4.438,0,0,1,1.929-.385,4.206,4.206,0,0,1,1.729.348,4.487,4.487,0,0,1,1.356.92,3.844,3.844,0,0,1,1.143,2.735Z" transform="translate(-40.768 -35.583)" fill="#f2f2f2"/>
    <path id="Trazado_451" data-name="Trazado 451" d="M656.967-217.822H654.43v-.573a2.688,2.688,0,0,0-.412-1.5,1.514,1.514,0,0,0-1.379-.636,1.606,1.606,0,0,0-.846.2,1.661,1.661,0,0,0-.522.5,2.087,2.087,0,0,0-.274.734,4.811,4.811,0,0,0-.074.859,8.4,8.4,0,0,0,.037.87,1.637,1.637,0,0,0,.186.623,1.379,1.379,0,0,0,.435.471,3.894,3.894,0,0,0,.784.4l1.94.771a4.825,4.825,0,0,1,1.369.76,3.292,3.292,0,0,1,.82,1.007,4.682,4.682,0,0,1,.373,1.355,13.423,13.423,0,0,1,.1,1.729,9.12,9.12,0,0,1-.223,2.076,4.384,4.384,0,0,1-.722,1.629,3.572,3.572,0,0,1-1.368,1.1,4.823,4.823,0,0,1-2.064.4,4.521,4.521,0,0,1-1.716-.323,4.089,4.089,0,0,1-1.368-.9,4.353,4.353,0,0,1-.907-1.332,4.023,4.023,0,0,1-.336-1.653v-.946H650.8v.8a2.076,2.076,0,0,0,.411,1.256,1.6,1.6,0,0,0,1.38.559,2.216,2.216,0,0,0,1.007-.187,1.344,1.344,0,0,0,.56-.535,1.957,1.957,0,0,0,.236-.833q.037-.486.038-1.083a10.566,10.566,0,0,0-.05-1.143,1.952,1.952,0,0,0-.2-.722,1.407,1.407,0,0,0-.46-.447,6.153,6.153,0,0,0-.759-.374l-1.816-.747a4.017,4.017,0,0,1-2.2-1.778,6.117,6.117,0,0,1-.561-2.774,6.394,6.394,0,0,1,.275-1.891,4.29,4.29,0,0,1,.821-1.542,3.739,3.739,0,0,1,1.33-1.032,4.432,4.432,0,0,1,1.928-.385,4.206,4.206,0,0,1,1.729.348,4.471,4.471,0,0,1,1.356.92,3.842,3.842,0,0,1,1.144,2.735Z" transform="translate(-49.529 -35.583)" fill="#f2f2f2"/>
    <path id="Trazado_452" data-name="Trazado 452" d="M636.14-297.47c2.379-.062,4.029,1.545,3.4,3.84-.428,1.352-1.753,2.861-3.071,2.874-2.813.011-4.258-1.834-3.638-4.042.01-.087-.055-.27.042-.346a3.251,3.251,0,0,1,3.269-2.326" transform="translate(-45.32 -15.474)" fill="#f2f2f2"/>
    <path id="Trazado_453" data-name="Trazado 453" d="M640.731-344.355a4.5,4.5,0,0,1,1.81-.785,4.034,4.034,0,0,1,2.787.387,3.648,3.648,0,0,1,1.783,2.064c.9,2.342-.342,11.077-3.042,21.427-1.8,6.649-2.539,7.7-4.942,7.208a2.617,2.617,0,0,1-2.151-1.248c-1-1.125-.9-2.785.744-11.365.789-4.084,1.591-8.925,1.74-10.816.387-3.8.8-6.175,1.27-6.873" transform="translate(-46.305 -2.566)" fill="#f2f2f2"/>
    <path id="Trazado_454" data-name="Trazado 454" d="M489.1-310.514c.348-2.525-3.749-6.735-4.844-9.686-2.456-7.118-1.3-16.162-.42-23.7.279-1.1.574-2.328,1.423-2.172,1.285.239,5.744,3.077,5.731,5.359-.187.7-.281,1.045-.468,1.744-.325,2.618-.7,6.664-.652,7.755a1.271,1.271,0,0,1,.018.436c-.336,1.538-.05,9.292,2.132,9.561,1.589-3.478,2.833-2.276,4.891-4.885,6.211-8.019,9.316-11.915,15.527-19.366-.014-.3,5.55-6.644,7.594-9.25l.107,0c.875.171,5.156,1.375,4.84,3.889a4.164,4.164,0,0,1-.787,1.678c-8.715,10.781-17,21.9-25,33.227-3.1,9.8-4.651,14.811-7.751,25.041a28.9,28.9,0,0,1-.332,5.057c-.11,1.043-.012,5.119-2.505,5.292-5.2.361-4.535-9.244-4.016-12.9.8-5.612,3.722-11.337,4.512-17.07" transform="translate(-4.805)" fill="#f2f2f2"/>
    <path id="Trazado_455" data-name="Trazado 455" d="M535.975-327.136l1.627-.125c7.186-2.69,10.777-4.005,17.961-6.4.216-.024,1.3-.241,1.616-.266,1.364-.106,3.188.79,3.163,2.265a10.112,10.112,0,0,1-.861,2.276c-2.418,1.609-6.314,4.219-6.532,4.25-7.664,2.644-11.5,4.083-19.161,6.983-5.021,2.189-7.059,10.863-7.348,15.591-.213,3.48.406,4.085,4.082,3.228,6.056-1.411,13.845-7.686,18.493-10.845a8.047,8.047,0,0,1,1.293-.363c1.519-.226,1.765.1,1.721,1.617-.213,7.363-14.977,15.789-21.141,17.412-5.3,1.394-8.425.016-11.246-4.454a20.823,20.823,0,0,1-.4-6.435c.29-4.42,2.593-17.546,7.337-23.206,2.97-6.368,4.456-9.479,7.427-15.539.1-.105.206-.209.094-.3.6-1.108.8-1.5,1.446-1.551,1.947-.144,1.949-.976,3.855-1.538,2.941-.965,2.588-.59,5.663-1.3,2.427-.557,14.5-2.939,16.861-3.153,2.248-.2,3.061,1.808,3,3.464-.066,1.828-.514,2.569-2.968,3.338-6.508,1.718-9.763,2.684-16.272,4.7-.191.06-.389.073-.584.123-3.074.771-5.385,1.178-6.006.909" transform="translate(-14.64 -1.548)" fill="#f2f2f2"/>
    <path id="Trazado_456" data-name="Trazado 456" d="M582.443-317.795c-.144-3.874-2.866-7.413-3.11-11.19-.729-11.355,10.877-20.58,22.06-20.278,3.74.1,9.429,2.705,10.092,6.465.067,1.1-.906,1.042-2.036,1.959-1.419-.274-9.4-1.835-10.587-1.833-7.243.023-12.023,9.284-11.522,14.853.326,3.633,2.642,6.877,2.973,10.356.663,6.954-4.293,16.88-13.7,19.295-2.485.637-5.639.094-5.829-2.524-.161-2.21,12.214-2.053,11.66-17.1" transform="translate(-28.589 -1.475)" fill="#f2f2f2"/>
  </g>
</svg>
