<svg width="36" height="30" viewBox="0 0 36 30" fill="none" xmlns="http://www.w3.org/2000/svg">
<path d="M32.6667 4.61539H27L25.65 0.873627C25.5567 0.617588 25.3858 0.396271 25.1606 0.239908C24.9354 0.0835442 24.6668 -0.00024009 24.3917 5.1677e-07H11.6083C11.0458 5.1677e-07 10.5417 0.350275 10.3542 0.873627L9 4.61539H3.33333C1.49167 4.61539 0 6.09066 0 7.91209V26.7033C0 28.5247 1.49167 30 3.33333 30H32.6667C34.5083 30 36 28.5247 36 26.7033V7.91209C36 6.09066 34.5083 4.61539 32.6667 4.61539ZM18 23.4066C14.3167 23.4066 11.3333 20.456 11.3333 16.8132C11.3333 13.1703 14.3167 10.2198 18 10.2198C21.6833 10.2198 24.6667 13.1703 24.6667 16.8132C24.6667 20.456 21.6833 23.4066 18 23.4066ZM14 16.8132C14 17.8624 14.4214 18.8686 15.1716 19.6105C15.9217 20.3524 16.9391 20.7692 18 20.7692C19.0609 20.7692 20.0783 20.3524 20.8284 19.6105C21.5786 18.8686 22 17.8624 22 16.8132C22 15.764 21.5786 14.7577 20.8284 14.0158C20.0783 13.2739 19.0609 12.8571 18 12.8571C16.9391 12.8571 15.9217 13.2739 15.1716 14.0158C14.4214 14.7577 14 15.764 14 16.8132Z" fill="black"/>
</svg>
