<svg width="33" height="34" viewBox="0 0 33 34" fill="none" xmlns="http://www.w3.org/2000/svg">
<path d="M25.1183 0C27.279 0 29.1328 0.759575 30.6797 2.27872C32.2266 3.79787 33 5.61844 33 7.74043C33 8.80142 32.3493 10.4291 31.048 12.6234C29.7467 14.8177 28.4699 17.0482 27.2176 19.3149C25.9654 21.5816 25.4129 23.3901 25.5603 24.7404C25.5603 24.9816 25.4252 25.1021 25.1551 25.1021C24.885 25.1021 24.75 24.9816 24.75 24.7404C24.8482 23.3901 24.2835 21.5816 23.0558 19.3149C21.8281 17.0482 20.5636 14.8177 19.2623 12.6234C17.9609 10.4291 17.3103 8.80142 17.3103 7.74043C17.3103 5.61844 18.0714 3.79787 19.5938 2.27872C21.1161 0.759575 22.9576 0 25.1183 0ZM25.1551 4.62979C24.2958 4.62979 23.5592 4.93121 22.9453 5.53404C22.3315 6.13688 22.0246 6.87234 22.0246 7.74043C22.0246 8.60851 22.3315 9.34397 22.9453 9.94681C23.5592 10.5496 24.2958 10.8511 25.1551 10.8511C26.0145 10.8511 26.7511 10.5496 27.365 9.94681C27.9788 9.34397 28.2857 8.60851 28.2857 7.74043C28.2857 6.87234 27.9788 6.13688 27.365 5.53404C26.7511 4.93121 26.0145 4.62979 25.1551 4.62979ZM3.16741 3.11064H16.7946C15.8125 4.6539 15.3214 6.31773 15.3214 8.10213C15.3214 9.35603 16.1071 11.3574 17.6786 14.1064L0.0736607 31.3957L0 30.8894V6.22128C0 5.35319 0.30692 4.61773 0.920759 4.01489C1.5346 3.41206 2.28348 3.11064 3.16741 3.11064ZM22.8348 23.0043L19.0781 19.3149L20.1094 18.2298C21.2879 20.1106 22.1964 21.7021 22.8348 23.0043ZM27.3281 34H4.125L15.6897 22.5702L27.3281 34ZM31.4531 16.0596V30.8894L31.3795 31.3957L26.0759 26.1872C26.2232 25.7532 26.3951 25.3071 26.5915 24.8489C26.7879 24.3908 27.0089 23.9085 27.2545 23.4021C27.5 22.8957 27.7333 22.4376 27.9542 22.0277C28.1752 21.6177 28.4699 21.0993 28.8382 20.4723C29.2065 19.8454 29.4766 19.3752 29.6484 19.0617C29.8203 18.7482 30.1272 18.2298 30.5692 17.5064L31.4531 16.0596ZM7.36607 17.7957C6.53125 17.7957 5.8683 17.627 5.37723 17.2894C4.88616 16.9518 4.64063 16.4936 4.64063 15.9149C4.64063 15.2397 5.08259 14.7333 5.96652 14.3957C6.45759 14.2511 6.99777 14.1787 7.58705 14.1787H7.95536C8.59375 14.661 9.03571 15.0227 9.28125 15.2638C9.52679 15.505 9.64955 15.7943 9.64955 16.1319C9.64955 16.566 9.42857 16.9518 8.98661 17.2894C8.54464 17.627 8.00446 17.7957 7.36607 17.7957ZM5.52455 8.97021C5.52455 8.48794 5.6596 8.11418 5.92969 7.84894C6.19978 7.58369 6.5067 7.45106 6.85045 7.45106C7.48884 7.45106 7.99219 7.74043 8.36049 8.31915C8.72879 8.89787 8.91295 9.50071 8.91295 10.1277C8.91295 10.6582 8.75335 11.0319 8.43415 11.2489C8.11496 11.466 7.78348 11.5745 7.43973 11.5745C6.89955 11.5745 6.44531 11.2972 6.07701 10.7426C5.70871 10.1879 5.52455 9.59716 5.52455 8.97021ZM9.35491 13.4553L8.83929 13.0213C8.54464 12.7801 8.39732 12.5631 8.39732 12.3702C8.39732 12.0326 8.5692 11.7433 8.91295 11.5021C9.74777 10.8752 10.1652 10.1759 10.1652 9.40426C10.1652 8.72908 9.82143 8.10213 9.13393 7.5234H10.0179L10.6808 6.87234H7.51339C6.48214 6.87234 5.68415 7.14965 5.11942 7.70426C4.55469 8.25887 4.27232 8.92199 4.27232 9.69362C4.27232 10.3206 4.4933 10.8752 4.93527 11.3574C5.37723 11.8397 5.99107 12.0809 6.77679 12.0809H7.14509L6.99777 12.6596C6.99777 12.9972 7.14509 13.3348 7.43973 13.6723C6.26116 13.7206 5.27902 13.9858 4.4933 14.4681C3.70759 14.9021 3.31473 15.505 3.31473 16.2766C3.31473 16.9035 3.5971 17.422 4.16183 17.8319C4.72656 18.2418 5.54911 18.4468 6.62946 18.4468C7.85714 18.4468 8.82701 18.1574 9.53906 17.5787C10.2511 17 10.6071 16.3489 10.6071 15.6255C10.6071 14.8539 10.1897 14.1305 9.35491 13.4553Z" fill="currentColor"/>
</svg>
