<svg width="27" height="27" viewBox="0 0 27 27" fill="none" xmlns="http://www.w3.org/2000/svg">
<path d="M3.375 6.32812C3.375 5.99246 3.50834 5.67054 3.74569 5.43319C3.98304 5.19584 4.30496 5.0625 4.64062 5.0625H17.2969C17.6325 5.0625 17.9545 5.19584 18.1918 5.43319C18.4292 5.67054 18.5625 5.99246 18.5625 6.32812C18.5625 6.66379 18.4292 6.98571 18.1918 7.22306C17.9545 7.46041 17.6325 7.59375 17.2969 7.59375H4.64062C4.30496 7.59375 3.98304 7.46041 3.74569 7.22306C3.50834 6.98571 3.375 6.66379 3.375 6.32812V6.32812ZM3.375 19.8281C3.375 19.4925 3.50834 19.1705 3.74569 18.9332C3.98304 18.6958 4.30496 18.5625 4.64062 18.5625H15.6094C15.945 18.5625 16.267 18.6958 16.5043 18.9332C16.7417 19.1705 16.875 19.4925 16.875 19.8281C16.875 20.1638 16.7417 20.4857 16.5043 20.7231C16.267 20.9604 15.945 21.0937 15.6094 21.0938H4.64062C4.30496 21.0937 3.98304 20.9604 3.74569 20.7231C3.50834 20.4857 3.375 20.1638 3.375 19.8281V19.8281ZM4.64062 11.8125C4.30496 11.8125 3.98304 11.9458 3.74569 12.1832C3.50834 12.4205 3.375 12.7425 3.375 13.0781C3.375 13.4138 3.50834 13.7357 3.74569 13.9731C3.98304 14.2104 4.30496 14.3438 4.64062 14.3438H22.3594C22.695 14.3437 23.017 14.2104 23.2543 13.9731C23.4917 13.7357 23.625 13.4138 23.625 13.0781C23.625 12.7425 23.4917 12.4205 23.2543 12.1832C23.017 11.9458 22.695 11.8125 22.3594 11.8125H4.64062Z" fill="white"/>
</svg>
