<svg width="19" height="19" viewBox="0 0 19 19" fill="none" xmlns="http://www.w3.org/2000/svg">
<path d="M9.5 1.52686C13.1541 1.52686 16.1161 4.48882 16.1161 8.14293C16.1161 10.9386 14.1516 13.9854 10.2736 17.3159C10.0579 17.5011 9.78301 17.6028 9.49873 17.6026C9.21446 17.6023 8.9397 17.5001 8.72439 17.3145L8.46789 17.0919C4.76154 13.8484 2.88393 10.8762 2.88393 8.14293C2.88393 4.48882 5.84589 1.52686 9.5 1.52686ZM9.5 5.59828C8.82512 5.59828 8.17788 5.86638 7.70067 6.34359C7.22345 6.82081 6.95536 7.46805 6.95536 8.14293C6.95536 8.81781 7.22345 9.46505 7.70067 9.94226C8.17788 10.4195 8.82512 10.6876 9.5 10.6876C10.1749 10.6876 10.8221 10.4195 11.2993 9.94226C11.7765 9.46505 12.0446 8.81781 12.0446 8.14293C12.0446 7.46805 11.7765 6.82081 11.2993 6.34359C10.8221 5.86638 10.1749 5.59828 9.5 5.59828Z" fill="black"/>
</svg>
