<svg width="19" height="19" viewBox="0 0 19 19" fill="none" xmlns="http://www.w3.org/2000/svg">
<path d="M18.1143 3.00218L15.6586 0.548787C15.4854 0.374797 15.2795 0.236748 15.0528 0.14257C14.826 0.0483923 14.5829 -5.88438e-05 14.3374 5.36324e-08C13.8371 5.36324e-08 13.3667 0.195995 13.0139 0.548787L10.3714 3.19126C10.1975 3.36449 10.0594 3.57039 9.96524 3.79713C9.87106 4.02387 9.82261 4.26698 9.82267 4.5125C9.82267 5.01286 10.0187 5.48325 10.3714 5.83604L12.3037 7.76832C11.8514 8.76527 11.2226 9.67222 10.4475 10.4454C9.67445 11.2223 8.7676 11.8534 7.77052 12.3085L5.83826 10.3762C5.66504 10.2022 5.45914 10.0642 5.23241 9.97C5.00567 9.87582 4.76256 9.82737 4.51704 9.82743C4.01669 9.82743 3.54631 10.0234 3.19352 10.3762L0.548779 13.0164C0.374579 13.1899 0.236414 13.3962 0.142233 13.6234C0.0480517 13.8505 -0.000285731 14.094 1.27057e-06 14.3399C1.27057e-06 14.8403 0.195994 15.3107 0.548779 15.6635L2.99984 18.1146C3.56245 18.6795 4.3395 19 5.1373 19C5.30563 19 5.46703 18.9862 5.62613 18.9585C8.73434 18.4466 11.8172 16.7933 14.3051 14.3076C16.7908 11.8243 18.4417 8.74369 18.9605 5.62621C19.1173 4.67391 18.8014 3.69393 18.1143 3.00218Z" fill="black"/>
</svg>
