<svg width="12" height="13" viewBox="0 0 12 13" fill="none" xmlns="http://www.w3.org/2000/svg">
<path fill-rule="evenodd" clip-rule="evenodd" d="M10.9792 5.82468C11.1517 5.9972 11.2586 6.23532 11.2577 6.4986C11.2577 7.02515 10.8318 7.45106 10.3053 7.45106L1.69351 7.45106C1.16696 7.45106 0.741044 7.02515 0.741044 6.49859C0.741044 5.97204 1.16696 5.54613 1.69351 5.54613L10.3053 5.54613C10.5685 5.54523 10.8067 5.65216 10.9792 5.82468Z" fill="#FCFCFD"/>
<path fill-rule="evenodd" clip-rule="evenodd" d="M6.67421 1.51627C6.84673 1.68879 6.95366 1.92691 6.95276 2.19019L6.95186 10.81C6.95186 11.3366 6.52594 11.7625 5.99939 11.7625C5.47194 11.7616 5.04602 11.3357 5.04692 10.81L5.04782 2.19019C5.04782 1.66363 5.47374 1.23772 6.00029 1.23772C6.26357 1.23682 6.50258 1.34464 6.67421 1.51627Z" fill="#FCFCFD"/>
</svg>
