<svg width="20" height="20" viewBox="0 0 20 20" fill="none" xmlns="http://www.w3.org/2000/svg">
<path fill-rule="evenodd" clip-rule="evenodd" d="M6.39175 1.66656H13.6167C16.4417 1.66656 18.3334 3.6499 18.3334 6.5999V13.4091C18.3334 16.3499 16.4417 18.3332 13.6167 18.3332H6.39175C3.56675 18.3332 1.66675 16.3499 1.66675 13.4091V6.5999C1.66675 3.6499 3.56675 1.66656 6.39175 1.66656ZM9.52509 12.4917L13.4834 8.53337C13.7668 8.25004 13.7668 7.79171 13.4834 7.50004C13.2001 7.21671 12.7334 7.21671 12.4501 7.50004L9.00842 10.9417L7.55009 9.48338C7.26676 9.20004 6.80009 9.20004 6.51676 9.48338C6.23342 9.76671 6.23342 10.225 6.51676 10.5167L8.50009 12.4917C8.64176 12.6334 8.82509 12.7 9.00842 12.7C9.20009 12.7 9.38342 12.6334 9.52509 12.4917Z" fill="#F7F7F8"/>
</svg>
