<svg width="64" height="64" viewBox="0 0 64 64" fill="none" xmlns="http://www.w3.org/2000/svg">
<path d="M31.928 48.656C31.928 50.457 30.223 51.916 28.118 51.916H3.814C1.708 51.916 0 50.457 0 48.656V19.29C0 17.489 1.708 16.033 3.814 16.033H28.118C30.223 16.033 31.928 17.49 31.928 19.29V48.656" fill="#BB324A"/>
<path d="M31.928 46.36C31.928 48.162 30.223 49.621 28.118 49.621H3.814C1.708 49.621 0 48.162 0 46.36V16.996C0 15.197 1.708 13.738 3.814 13.738H28.118C30.223 13.738 31.928 15.197 31.928 16.996V46.36" fill="#DE374B"/>
<path d="M31.622 48.656C31.622 50.457 33.329 51.916 35.434 51.916H59.74C61.841 51.916 63.549 50.457 63.549 48.656V19.29C63.549 17.489 61.841 16.033 59.74 16.033H35.436C33.331 16.033 31.623 17.49 31.623 19.29V48.656" fill="#BB324A"/>
<path d="M31.622 46.36C31.622 48.162 33.329 49.621 35.434 49.621H59.74C61.841 49.621 63.549 48.162 63.549 46.36V16.996C63.549 15.197 61.841 13.738 59.74 13.738H35.436C33.331 13.738 31.623 15.197 31.623 16.996V46.36" fill="#DE374B"/>
<path d="M32.26 45.922C32.26 47.723 30.652 49.182 28.666 49.182H5.77199C3.78999 49.182 2.18399 47.723 2.18399 45.922V16.557C2.18399 14.754 3.78999 13.298 5.77199 13.298H28.667C30.653 13.298 32.261 14.755 32.261 16.557V45.922" fill="#D0D1D2"/>
<path d="M32.26 43.624C32.26 45.427 30.652 46.884 28.666 46.884H5.77199C3.78999 46.884 2.18399 45.427 2.18399 43.624V14.258C2.18399 12.459 3.78999 11 5.77199 11H28.667C30.653 11 32.261 12.459 32.261 14.258V43.624" fill="#E7E6E6"/>
<path d="M6.70599 18.893H27.075C28.444 18.893 28.444 16.967 27.075 16.967H6.70599C5.33799 16.967 5.33799 18.893 6.70599 18.893Z" fill="#35494D"/>
<path d="M6.70599 22.8H27.075C28.444 22.8 28.444 20.876 27.075 20.876H6.70599C5.33799 20.876 5.33799 22.8 6.70599 22.8Z" fill="#35494D"/>
<path d="M6.70599 26.797H27.075C28.444 26.797 28.444 24.871 27.075 24.871H6.70599C5.33799 24.871 5.33799 26.797 6.70599 26.797Z" fill="#35494D"/>
<path d="M6.70599 30.707H27.075C28.444 30.707 28.444 28.781 27.075 28.781H6.70599C5.33799 28.781 5.33799 30.707 6.70599 30.707Z" fill="#35494D"/>
<path d="M6.70599 34.751H27.075C28.444 34.751 28.444 32.825 27.075 32.825H6.70599C5.33799 32.825 5.33799 34.751 6.70599 34.751Z" fill="#35494D"/>
<path d="M6.70599 39.32H27.075C28.444 39.32 28.444 37.394 27.075 37.394H6.70599C5.33799 37.394 5.33799 39.32 6.70599 39.32Z" fill="#35494D"/>
<path d="M62.33 46.54C62.33 48.341 60.723 49.799 58.738 49.799H35.844C33.865 49.799 32.255 48.341 32.255 46.54V17.173C32.255 15.374 33.865 13.916 35.844 13.916H58.738C60.722 13.916 62.33 15.374 62.33 17.173V46.54Z" fill="#D0D1D2"/>
<path d="M62.33 44.24C62.33 46.039 60.723 47.498 58.738 47.498H35.844C33.865 47.498 32.255 46.039 32.255 44.24V14.87C32.255 13.072 33.865 11.615 35.844 11.615H58.738C60.722 11.615 62.33 13.072 62.33 14.87V44.24" fill="#E7E6E6"/>
<path d="M36.779 19.509H57.148C58.517 19.509 58.517 17.583 57.148 17.583H36.779C35.41 17.583 35.41 19.509 36.779 19.509Z" fill="#35494D"/>
<path d="M36.779 23.42H57.148C58.517 23.42 58.517 21.496 57.148 21.496H36.779C35.41 21.496 35.41 23.42 36.779 23.42Z" fill="#35494D"/>
<path d="M36.779 27.416H57.148C58.517 27.416 58.517 25.49 57.148 25.49H36.779C35.41 25.49 35.41 27.416 36.779 27.416Z" fill="#35494D"/>
<path d="M36.779 31.33H57.148C58.517 31.33 58.517 29.402 57.148 29.402H36.779C35.41 29.402 35.41 31.33 36.779 31.33Z" fill="#35494D"/>
<path d="M36.779 35.37H57.148C58.517 35.37 58.517 33.443 57.148 33.443H36.779C35.41 33.443 35.41 35.37 36.779 35.37Z" fill="#35494D"/>
<path d="M44.11 39.936H57.503C58.403 39.936 58.403 38.009 57.503 38.009H44.11C43.211 38.009 43.211 39.936 44.11 39.936Z" fill="#35494D"/>
</svg>
