<svg width="20" height="20" viewBox="0 0 20 20" fill="none" xmlns="http://www.w3.org/2000/svg">
<path d="M16.7181 15.5812C17.6157 14.5013 18.24 13.221 18.5381 11.8488C18.8363 10.4766 18.7996 9.05273 18.431 7.69771C18.0625 6.34268 17.3731 5.09634 16.421 4.06412C15.469 3.0319 14.2823 2.24417 12.9614 1.76756C11.6405 1.29095 10.2243 1.1395 8.83247 1.326C7.44067 1.5125 6.11426 2.03147 4.96545 2.83901C3.81663 3.64655 2.87921 4.71891 2.23249 5.96537C1.58577 7.21182 1.24877 8.5957 1.25 9.99995C1.25047 12.0413 1.96984 14.0173 3.28188 15.5812L3.26938 15.5918C3.31313 15.6443 3.36313 15.6893 3.40813 15.7412C3.46438 15.8056 3.525 15.8662 3.58312 15.9287C3.75812 16.1187 3.93813 16.3012 4.12688 16.4724C4.18438 16.5249 4.24375 16.5737 4.30187 16.6237C4.50187 16.7962 4.7075 16.9599 4.92063 17.1124C4.94813 17.1312 4.97313 17.1556 5.00063 17.1749V17.1674C6.46444 18.1976 8.21069 18.7504 10.0006 18.7504C11.7906 18.7504 13.5368 18.1976 15.0006 17.1674V17.1749C15.0281 17.1556 15.0525 17.1312 15.0806 17.1124C15.2931 16.9593 15.4994 16.7962 15.6994 16.6237C15.7575 16.5737 15.8169 16.5243 15.8744 16.4724C16.0631 16.3006 16.2431 16.1187 16.4181 15.9287C16.4762 15.8662 16.5363 15.8056 16.5931 15.7412C16.6375 15.6893 16.6881 15.6443 16.7319 15.5912L16.7181 15.5812ZM10 4.99995C10.5563 4.99995 11.1 5.1649 11.5625 5.47394C12.0251 5.78298 12.3855 6.22223 12.5984 6.73615C12.8113 7.25007 12.867 7.81557 12.7585 8.36114C12.6499 8.90671 12.3821 9.40785 11.9887 9.80118C11.5954 10.1945 11.0943 10.4624 10.5487 10.5709C10.0031 10.6794 9.43762 10.6237 8.9237 10.4109C8.40979 10.198 7.97053 9.8375 7.66149 9.37499C7.35245 8.91247 7.1875 8.36871 7.1875 7.81245C7.1875 7.06652 7.48382 6.35115 8.01126 5.82371C8.53871 5.29626 9.25408 4.99995 10 4.99995V4.99995ZM5.00437 15.5812C5.01522 14.7606 5.34872 13.9772 5.93272 13.4005C6.51673 12.8239 7.30428 12.5004 8.125 12.4999H11.875C12.6957 12.5004 13.4833 12.8239 14.0673 13.4005C14.6513 13.9772 14.9848 14.7606 14.9956 15.5812C13.6249 16.8164 11.8452 17.5 10 17.5C8.15484 17.5 6.3751 16.8164 5.00437 15.5812V15.5812Z" fill="black"/>
</svg>
