<svg xmlns="http://www.w3.org/2000/svg" width="21.278" height="17.429" viewBox="0 0 21.278 17.429">
  <g id="Grupo_654" data-name="Grupo 654" transform="translate(-24.033 -64.109)">
    <path id="Trazado_590" data-name="Trazado 590" d="M43.3,64.109H26.04a2.009,2.009,0,0,0-2.007,2.007v9.759a2.009,2.009,0,0,0,2.007,2.007H39.3l3.185,3.444a.66.66,0,0,0,1.144-.448V77.855a2.01,2.01,0,0,0,1.677-1.98V66.116A2.009,2.009,0,0,0,43.3,64.109Zm.687,11.766a.688.688,0,0,1-.687.688h-.33a.659.659,0,0,0-.66.66v1.971l-2.237-2.419a.66.66,0,0,0-.485-.212H26.04a.688.688,0,0,1-.687-.688V66.116a.688.688,0,0,1,.687-.687H43.3a.688.688,0,0,1,.687.687Z" fill="#070606"/>
    <path id="Trazado_591" data-name="Trazado 591" d="M44.953,77.266h-11.6a.66.66,0,1,0,0,1.32h11.6a.66.66,0,1,0,0-1.32Z" transform="translate(-5.8 -8.813)" fill="#070606"/>
    <path id="Trazado_592" data-name="Trazado 592" d="M39.153,87.258h-5.8a.66.66,0,1,0,0,1.32h5.8a.66.66,0,0,0,0-1.32Z" transform="translate(-5.8 -15.507)" fill="#070606"/>
  </g>
</svg>
