<svg xmlns="http://www.w3.org/2000/svg" width="30.465" height="30.465" viewBox="0 0 30.465 30.465">
  <g id="noun_Coupon_3185941" transform="translate(-7.778 11.983) rotate(-45)">
    <g id="Grupo_520" data-name="Grupo 520" transform="translate(0 11)">
      <path id="Trazado_575" data-name="Trazado 575" d="M27.364,17.4a.582.582,0,0,0,.582-.582V13.911a.582.582,0,0,0-.582-.582,1.747,1.747,0,0,1-1.747-1.747A.582.582,0,0,0,25.035,11H2.911a.582.582,0,0,0-.582.582A1.747,1.747,0,0,1,.582,13.329.582.582,0,0,0,0,13.911v2.911a.582.582,0,0,0,.582.582,1.164,1.164,0,1,1,0,2.329A.582.582,0,0,0,0,20.316v2.911a.582.582,0,0,0,.582.582,1.747,1.747,0,0,1,1.747,1.747.582.582,0,0,0,.582.582H25.035a.582.582,0,0,0,.582-.582,1.747,1.747,0,0,1,1.747-1.747.582.582,0,0,0,.582-.582V20.316a.582.582,0,0,0-.582-.582,1.164,1.164,0,1,1,0-2.329Zm-.582,3.418V22.7a2.911,2.911,0,0,0-2.271,2.271H3.435A2.911,2.911,0,0,0,1.164,22.7V20.822a2.329,2.329,0,0,0,0-4.506V14.435a2.911,2.911,0,0,0,2.271-2.271H24.511a2.911,2.911,0,0,0,2.271,2.271v1.881a2.329,2.329,0,0,0,0,4.506Z" transform="translate(0 -11)"/>
      <path id="Trazado_576" data-name="Trazado 576" d="M31.553,17.184l-6.4,6.987a.582.582,0,0,0,.431.978c.367,0-.128.419,6.835-7.173a.585.585,0,1,0-.862-.792Z" transform="translate(-10.442 -13.505)"/>
      <path id="Trazado_577" data-name="Trazado 577" d="M27.493,18.747a1.747,1.747,0,1,0-1.747,1.747A1.747,1.747,0,0,0,27.493,18.747Zm-2.329,0a.582.582,0,1,1,.582.582A.582.582,0,0,1,25.164,18.747Z" transform="translate(-10.027 -13.507)"/>
      <path id="Trazado_578" data-name="Trazado 578" d="M34.747,25a1.747,1.747,0,1,0,1.747,1.747A1.747,1.747,0,0,0,34.747,25Zm0,2.329a.582.582,0,1,1,.582-.582A.582.582,0,0,1,34.747,27.329Z" transform="translate(-13.787 -16.849)"/>
      <path id="Trazado_579" data-name="Trazado 579" d="M18.582,15a.582.582,0,1,0,.582.582A.582.582,0,0,0,18.582,15Z" transform="translate(-7.52 -12.671)"/>
      <path id="Trazado_580" data-name="Trazado 580" d="M18.582,19a.582.582,0,1,0,.582.582A.582.582,0,0,0,18.582,19Z" transform="translate(-7.52 -14.342)"/>
      <path id="Trazado_581" data-name="Trazado 581" d="M18.582,23a.582.582,0,1,0,.582.582A.582.582,0,0,0,18.582,23Z" transform="translate(-7.52 -16.013)"/>
      <path id="Trazado_582" data-name="Trazado 582" d="M18.582,27a.582.582,0,1,0,.582.582A.582.582,0,0,0,18.582,27Z" transform="translate(-7.52 -17.684)"/>
      <path id="Trazado_583" data-name="Trazado 583" d="M18.582,31a.582.582,0,1,0,.582.582A.582.582,0,0,0,18.582,31Z" transform="translate(-7.52 -19.356)"/>
    </g>
  </g>
</svg>
