<svg xmlns="http://www.w3.org/2000/svg" width="25.662" height="21.755" viewBox="0 0 25.662 21.755">
  <g id="Grupo_439" data-name="Grupo 439" transform="translate(-1230.354 -722.882)">
    <path id="Trazado_544" data-name="Trazado 544" d="M1252.8,750.582a.4.4,0,0,0-.516.238,9.667,9.667,0,0,1-18.69-2.313l1.639,1.612a.4.4,0,0,0,.569-.572l-2.378-2.364a.259.259,0,0,0-.057-.036.365.365,0,0,0-.08-.053h-.06a.434.434,0,0,0-.093-.008h-.068a.368.368,0,0,0-.116.037l-.033.019a.385.385,0,0,0-.1.089L1230.878,750a.4.4,0,0,0,.564.575.418.418,0,0,0,.08-.111l1.261-1.793a10.472,10.472,0,0,0,20.236,2.417.4.4,0,0,0-.221-.5" transform="translate(0 -13.726)" fill="#070606"/>
    <path id="Trazado_545" data-name="Trazado 545" d="M1252.8,750.582a.4.4,0,0,0-.516.238,9.667,9.667,0,0,1-18.69-2.313l1.639,1.612a.4.4,0,0,0,.569-.572l-2.377-2.364a.257.257,0,0,0-.057-.036.36.36,0,0,0-.08-.053h-.06a.462.462,0,0,0-.093-.008h-.068a.368.368,0,0,0-.116.037l-.033.019a.393.393,0,0,0-.1.089L1230.878,750a.4.4,0,0,0,.564.575.418.418,0,0,0,.08-.111l1.261-1.793a10.472,10.472,0,0,0,20.236,2.417A.4.4,0,0,0,1252.8,750.582Z" transform="translate(0 -13.726)" fill="none" stroke="#070606" stroke-miterlimit="10" stroke-width="0.806"/>
    <path id="Trazado_546" data-name="Trazado 546" d="M1258.293,730.79l-1.276,1.8a10.473,10.473,0,0,0-20.33-2.18.4.4,0,1,0,.765.258,9.668,9.668,0,0,1,18.771,2.064l-1.612-1.612a.4.4,0,0,0-.568.572l2.361,2.353a.4.4,0,0,0,.278.117h.036a.58.58,0,0,0,.073-.024h.056a.491.491,0,0,0,.089-.06l.036-.033a.405.405,0,0,0,.039-.036l1.93-2.743a.4.4,0,0,0-.649-.48" transform="translate(-3.408 0)" fill="#070606"/>
    <path id="Trazado_547" data-name="Trazado 547" d="M1258.293,730.79l-1.276,1.8a10.473,10.473,0,0,0-20.33-2.18.4.4,0,1,0,.765.258,9.668,9.668,0,0,1,18.771,2.064l-1.612-1.612a.4.4,0,0,0-.568.572l2.361,2.353a.4.4,0,0,0,.278.117h.036a.556.556,0,0,0,.073-.024h.056a.491.491,0,0,0,.089-.06l.036-.033a.471.471,0,0,0,.039-.036l1.93-2.743a.4.4,0,0,0-.649-.48Z" transform="translate(-3.408 0)" fill="none" stroke="#070606" stroke-miterlimit="10" stroke-width="0.806"/>
  </g>
</svg>
