<svg xmlns="http://www.w3.org/2000/svg" width="24.469" height="21.485" viewBox="0 0 24.469 21.485">
  <g id="Grupo_655" data-name="Grupo 655" transform="translate(-497 -61.456)">
    <path id="Trazado_593" data-name="Trazado 593" d="M513.71,71.6c-.388,0-.806,0-1.194.03V64.44h-.03a1.017,1.017,0,0,0,.03-.3c0-1.85-4.028-2.686-7.758-2.686S497,62.292,497,64.142a1.013,1.013,0,0,0,.03.3H497V76.078c0,1.85,4.029,2.686,7.758,2.686.388,0,.806,0,1.194-.03v1.522c0,1.85,4.028,2.686,7.758,2.686s7.758-.836,7.758-2.686V74.287C521.469,72.437,517.44,71.6,513.71,71.6Zm-2.6.149a.481.481,0,0,0,.209-.119v.09A.508.508,0,0,0,511.114,71.751Zm-6.356-9.1c4.267,0,6.565,1.044,6.565,1.492s-2.3,1.492-6.565,1.492-6.565-1.044-6.565-1.492S500.491,62.65,504.758,62.65Zm-6.565,3.014a19.1,19.1,0,0,0,13.13,0v1.462c0,.448-2.3,1.492-6.565,1.492s-6.565-1.044-6.565-1.492Zm0,2.984a19.1,19.1,0,0,0,13.13,0V70.11c0,.448-2.3,1.492-6.565,1.492s-6.565-1.044-6.565-1.492Zm0,2.984a15.312,15.312,0,0,0,6.565,1.164,24.762,24.762,0,0,0,2.6-.149c-.865.418-1.4.955-1.4,1.641v.269c-.388.03-.806.03-1.194.03-4.267,0-6.565-1.044-6.565-1.492Zm6.565,5.938c-4.267,0-6.565-1.044-6.565-1.492V74.615a15.312,15.312,0,0,0,6.565,1.164c.388,0,.806,0,1.194-.03v1.79C505.564,77.57,505.146,77.57,504.758,77.57Zm8.952,4.178c-4.267,0-6.565-1.044-6.565-1.492V78.793a19.1,19.1,0,0,0,13.129,0v1.462C520.275,80.7,517.978,81.747,513.71,81.747Zm0-2.984c-4.267,0-6.565-1.044-6.565-1.492V75.809a19.1,19.1,0,0,0,13.129,0v1.462C520.275,77.719,517.978,78.763,513.71,78.763Zm0-2.984c-4.267,0-6.565-1.044-6.565-1.492s2.3-1.492,6.565-1.492,6.565,1.044,6.565,1.492S517.978,75.779,513.71,75.779Z" transform="translate(0 0)" fill="#070606"/>
  </g>
</svg>
