<svg xmlns="http://www.w3.org/2000/svg" width="21.807" height="18.05" viewBox="0 0 21.807 18.05">
  <g id="Grupo_653" data-name="Grupo 653" transform="translate(399.087 -47.671)">
    <path id="Trazado_588" data-name="Trazado 588" d="M-387.99,57.152a5.15,5.15,0,0,0,2.363-4.326,5.161,5.161,0,0,0-5.155-5.155,5.16,5.16,0,0,0-5.154,5.155,5.151,5.151,0,0,0,2.362,4.326,8.311,8.311,0,0,0-5.513,7.812.756.756,0,0,0,.757.757.756.756,0,0,0,.757-.757,6.8,6.8,0,0,1,6.791-6.792,6.8,6.8,0,0,1,6.792,6.792.757.757,0,0,0,.757.757.756.756,0,0,0,.757-.757A8.312,8.312,0,0,0-387.99,57.152Zm-2.792-7.967a3.646,3.646,0,0,1,3.641,3.641,3.645,3.645,0,0,1-3.641,3.64,3.644,3.644,0,0,1-3.64-3.64A3.645,3.645,0,0,1-390.782,49.185Z" transform="translate(0 0)" fill="#070606"/>
    <path id="Trazado_589" data-name="Trazado 589" d="M-342.136,64.364h-1.515V62.85a.756.756,0,0,0-.757-.757.757.757,0,0,0-.757.757v1.514h-1.513a.756.756,0,0,0-.757.757.757.757,0,0,0,.757.757h1.513v1.514a.757.757,0,0,0,.757.757.757.757,0,0,0,.757-.757V65.877h1.515a.757.757,0,0,0,.757-.757A.756.756,0,0,0-342.136,64.364Z" transform="translate(-35.901 -10.024)" fill="#070606"/>
  </g>
</svg>
