<svg xmlns="http://www.w3.org/2000/svg" width="38.648" height="31.927" viewBox="0 0 38.648 31.927">
  <g id="noun_add_photo_3987591" data-name="noun_add photo_3987591" transform="translate(-1 -3)">
    <g id="Grupo_712" data-name="Grupo 712" transform="translate(1 3)">
      <path id="Trazado_613" data-name="Trazado 613" d="M26.686,8.5H24.655V6.471a1.68,1.68,0,1,0-3.361,0V8.5H19.262a1.68,1.68,0,0,0,0,3.361h2.032V13.9a1.68,1.68,0,0,0,3.361,0V11.864h2.032a1.68,1.68,0,0,0,0-3.361Z" transform="translate(10.282 -1.781)"/>
      <path id="Trazado_614" data-name="Trazado 614" d="M37.968,17.283a1.681,1.681,0,0,0-1.68,1.68v12.6H4.361V11.4h5.745a1.684,1.684,0,0,0,1.541-1.008L13.4,6.361H28.343a1.68,1.68,0,0,0,0-3.361H12.305a1.682,1.682,0,0,0-1.541,1.008L9.005,8.041H2.68A1.681,1.681,0,0,0,1,9.721V33.246a1.681,1.681,0,0,0,1.68,1.68H37.968a1.681,1.681,0,0,0,1.68-1.68V18.963A1.681,1.681,0,0,0,37.968,17.283Z" transform="translate(-1 -3)"/>
      <path id="Trazado_615" data-name="Trazado 615" d="M15.778,8a8.262,8.262,0,0,0-8.1,8.4,8.263,8.263,0,0,0,8.1,8.4,8.263,8.263,0,0,0,8.1-8.4A8.262,8.262,0,0,0,15.778,8Zm0,13.443A4.9,4.9,0,0,1,11.043,16.4a4.9,4.9,0,0,1,4.735-5.041A4.9,4.9,0,0,1,20.513,16.4,4.9,4.9,0,0,1,15.778,21.443Z" transform="translate(3.546 0.402)"/>
    </g>
  </g>
</svg>
