<svg id="Grupo_470" data-name="Grupo 470" xmlns="http://www.w3.org/2000/svg" width="20.055" height="20.054" viewBox="0 0 20.055 20.054">
  <path id="Trazado_362" data-name="Trazado 362" d="M472.595,121.826a10.027,10.027,0,1,0-11.587,9.906v-7.009h-2.563v-2.9h2.563v-2.209a3.537,3.537,0,0,1,3.779-3.907,14.18,14.18,0,0,1,2.236.211v2.451h-1.256a1.461,1.461,0,0,0-1.643,1.573l0,1.881h2.785l-.445,2.9h-2.34v7.009a10.03,10.03,0,0,0,8.467-9.906" transform="translate(-452.54 -111.799)" fill="#1877f2"/>
  <path id="Trazado_363" data-name="Trazado 363" d="M487.371,138.569l.446-2.9h-2.785l0-1.881a1.461,1.461,0,0,1,1.643-1.573h1.256v-2.451a14.121,14.121,0,0,0-2.236-.212,3.537,3.537,0,0,0-3.779,3.907v2.209h-2.563v2.9h2.563v7.009a10.1,10.1,0,0,0,3.119,0v-7.009Z" transform="translate(-473.444 -125.645)" fill="#fff"/>
</svg>
