<svg id="google-icon" xmlns="http://www.w3.org/2000/svg" width="19.973" height="20.38" viewBox="0 0 19.973 20.38">
  <path id="Trazado_364" data-name="Trazado 364" d="M140.333,108.844a8.732,8.732,0,0,0-.215-2.083H130.55v3.782h5.616a4.98,4.98,0,0,1-2.083,3.306l-.019.127,3.025,2.343.21.021a9.963,9.963,0,0,0,3.034-7.5" transform="translate(-120.36 -98.428)" fill="#4285f4"/>
  <path id="Trazado_365" data-name="Trazado 365" d="M23.028,164.545a9.713,9.713,0,0,0,6.748-2.468l-3.216-2.491a6.031,6.031,0,0,1-3.533,1.019,6.135,6.135,0,0,1-5.8-4.235l-.12.01-3.146,2.434-.041.114a10.183,10.183,0,0,0,9.1,5.616" transform="translate(-12.838 -144.164)" fill="#34a853"/>
  <path id="Trazado_366" data-name="Trazado 366" d="M4.393,77.951a6.273,6.273,0,0,1-.34-2.015,6.592,6.592,0,0,1,.328-2.015l-.006-.135L1.191,71.312l-.1.05a10.169,10.169,0,0,0,0,9.149l3.306-2.559" transform="translate(0 -65.746)" fill="#fbbc05"/>
  <path id="Trazado_367" data-name="Trazado 367" d="M23.028,3.94a5.648,5.648,0,0,1,3.94,1.517l2.876-2.808A9.791,9.791,0,0,0,23.028,0a10.183,10.183,0,0,0-9.1,5.616L17.22,8.175A6.16,6.16,0,0,1,23.028,3.94" transform="translate(-12.838 0)" fill="#eb4335"/>
</svg>
