<svg id="noun_instagram_3350460" xmlns="http://www.w3.org/2000/svg" width="47.466" height="47.466" viewBox="0 0 47.466 47.466">
  <path id="Trazado_567" data-name="Trazado 567" d="M39.555,0H7.911A7.911,7.911,0,0,0,0,7.911V39.555a7.911,7.911,0,0,0,7.911,7.911H39.555a7.911,7.911,0,0,0,7.911-7.911V7.911A7.911,7.911,0,0,0,39.555,0ZM43.51,39.555a3.955,3.955,0,0,1-3.955,3.955H7.911a3.955,3.955,0,0,1-3.955-3.955V7.911A3.955,3.955,0,0,1,7.911,3.955H39.555A3.955,3.955,0,0,1,43.51,7.911Z"/>
  <path id="Trazado_568" data-name="Trazado 568" d="M17.866,6A11.866,11.866,0,1,0,29.733,17.866,11.866,11.866,0,0,0,17.866,6Zm0,19.777a7.911,7.911,0,1,1,7.911-7.911A7.911,7.911,0,0,1,17.866,25.777Z" transform="translate(5.866 5.866)"/>
  <circle id="Elipse_26" data-name="Elipse 26" cx="3" cy="3" r="3" transform="translate(34 7.466)"/>
</svg>
