<svg id="noun_instagram_3350460" xmlns="http://www.w3.org/2000/svg" width="14.081" height="14.081" viewBox="0 0 14.081 14.081">
  <path id="Trazado_567" data-name="Trazado 567" d="M11.734,0H2.347A2.347,2.347,0,0,0,0,2.347v9.387a2.347,2.347,0,0,0,2.347,2.347h9.387a2.347,2.347,0,0,0,2.347-2.347V2.347A2.347,2.347,0,0,0,11.734,0Zm1.173,11.734a1.173,1.173,0,0,1-1.173,1.173H2.347a1.173,1.173,0,0,1-1.173-1.173V2.347A1.173,1.173,0,0,1,2.347,1.173h9.387a1.173,1.173,0,0,1,1.173,1.173Z" fill="#909090"/>
  <path id="Trazado_568" data-name="Trazado 568" d="M9.52,6a3.52,3.52,0,1,0,3.52,3.52A3.52,3.52,0,0,0,9.52,6Zm0,5.867A2.347,2.347,0,1,1,11.867,9.52,2.347,2.347,0,0,1,9.52,11.867Z" transform="translate(-2.48 -2.48)" fill="#909090"/>
  <circle id="Elipse_26" data-name="Elipse 26" cx="1" cy="1" r="1" transform="translate(10 2.081)" fill="#909090"/>
</svg>
