<svg xmlns="http://www.w3.org/2000/svg" width="14.832" height="14.888" viewBox="0 0 14.832 14.888">
  <g id="noun_Pencil_4162189" transform="translate(-4.536 -4.43)">
    <g id="Grupo_521" data-name="Grupo 521" transform="translate(4.536 4.43)">
      <path id="Trazado_584" data-name="Trazado 584" d="M19,6.162,17.636,4.8a1.249,1.249,0,0,0-.9-.367h0a1.346,1.346,0,0,0-.959.406L14.307,6.3h0L5.968,14.675h0a.522.522,0,0,0-.077.116.837.837,0,0,0-.064.1h0L4.539,18.474v.09a.979.979,0,0,0,0,.135.889.889,0,0,0,0,.129v.122a.264.264,0,0,0,.032.058.644.644,0,0,0,.09.129l.058.052a.509.509,0,0,0,.148.09h.039a.567.567,0,0,0,.412,0h0L8.9,17.991h0c.032,0,.064-.045.1-.064a.644.644,0,0,0,.109-.077h0l8.371-8.339h0l1.475-1.494a1.372,1.372,0,0,0,.406-.966A1.249,1.249,0,0,0,19,6.162ZM8.351,16.813,6.194,17.6l.792-2.157,7.779-7.779L16.13,9.034ZM17.07,8.126l-1.4-1.365,1.05-1.05,1.333,1.4Z" transform="translate(-4.536 -4.43)" fill="#0b0b0b"/>
    </g>
  </g>
</svg>
