<svg xmlns="http://www.w3.org/2000/svg" width="76.803" height="46.284" viewBox="0 0 76.803 46.284">
  <g id="Grupo_650" data-name="Grupo 650" transform="translate(5854.221 -3147)">
    <path id="Trazado_452" data-name="Trazado 452" d="M634.841-297.47c1.484-.039,2.513.964,2.119,2.4-.267.844-1.093,1.785-1.915,1.793-1.755.007-2.656-1.144-2.269-2.521.007-.054-.034-.168.026-.216a2.028,2.028,0,0,1,2.039-1.451" transform="translate(-6418.669 3470.534)"/>
    <path id="Trazado_453" data-name="Trazado 453" d="M639.077-344.685a2.81,2.81,0,0,1,1.129-.49,2.516,2.516,0,0,1,1.738.242,2.276,2.276,0,0,1,1.112,1.288c.561,1.461-.213,6.91-1.9,13.366-1.12,4.148-1.584,4.806-3.083,4.5a1.633,1.633,0,0,1-1.342-.778c-.625-.7-.56-1.738.464-7.089.492-2.547.992-5.568,1.085-6.747a14.27,14.27,0,0,1,.793-4.288" transform="translate(-6420.656 3496.554)"/>
    <path id="Trazado_454" data-name="Trazado 454" d="M486.726-327.146c.217-1.575-2.339-4.2-3.022-6.043-1.532-4.441-.813-10.082-.262-14.787.174-.688.358-1.452.888-1.355.8.149,3.584,1.919,3.575,3.343l-.292,1.088c-.2,1.633-.436,4.157-.407,4.838a.793.793,0,0,1,.011.272c-.209.959-.031,5.8,1.33,5.964.991-2.17,1.767-1.42,3.051-3.047,3.874-5,5.812-7.433,9.686-12.081-.009-.188,3.462-4.145,4.737-5.77l.067,0c.546.107,3.216.858,3.019,2.426a2.6,2.6,0,0,1-.491,1.047c-5.437,6.725-10.607,13.664-15.6,20.728-1.934,6.113-2.9,9.239-4.835,15.621a18.028,18.028,0,0,1-.207,3.155c-.069.651-.007,3.193-1.563,3.3-3.247.225-2.829-5.767-2.505-8.049.5-3.5,2.322-7.072,2.815-10.649" transform="translate(-6337.004 3501.726)"/>
    <path id="Trazado_455" data-name="Trazado 455" d="M529.653-335.361l1.015-.078c4.483-1.678,6.723-2.5,11.2-3.993.135-.015.812-.15,1.008-.166.851-.066,1.989.493,1.973,1.413a6.3,6.3,0,0,1-.537,1.42c-1.508,1-3.939,2.632-4.075,2.651-4.781,1.649-7.172,2.547-11.953,4.356-3.132,1.366-4.4,6.777-4.584,9.726-.133,2.171.253,2.548,2.546,2.014,3.778-.88,8.637-4.795,11.536-6.765a5.012,5.012,0,0,1,.807-.226c.947-.141,1.1.061,1.074,1.009-.133,4.593-9.343,9.849-13.188,10.862-3.3.87-5.256.01-7.015-2.778a12.99,12.99,0,0,1-.247-4.014c.181-2.757,1.617-10.945,4.577-14.476,1.853-3.973,2.78-5.913,4.633-9.693.065-.066.128-.13.059-.185.374-.691.5-.939.9-.968,1.215-.09,1.216-.609,2.4-.959a25.122,25.122,0,0,1,3.533-.81c1.514-.348,9.046-1.834,10.518-1.967,1.4-.127,1.91,1.128,1.872,2.161-.041,1.14-.321,1.6-1.851,2.082-4.06,1.072-6.09,1.674-10.151,2.93-.119.037-.243.046-.364.077a10.525,10.525,0,0,1-3.747.567" transform="translate(-6356.828 3498.607)"/>
    <path id="Trazado_456" data-name="Trazado 456" d="M578.056-329.635c-.09-2.417-1.788-4.624-1.94-6.981-.455-7.084,6.785-12.838,13.761-12.649,2.333.063,5.882,1.688,6.3,4.033.042.685-.565.65-1.27,1.222-.885-.171-5.863-1.145-6.6-1.143-4.518.014-7.5,5.791-7.188,9.265.2,2.266,1.648,4.29,1.855,6.46.413,4.338-2.678,10.53-8.546,12.036-1.551.4-3.518.059-3.636-1.575-.1-1.378,7.619-1.281,7.273-10.668" transform="translate(-6384.944 3498.754)"/>
  </g>
</svg>
