<svg xmlns="http://www.w3.org/2000/svg" width="43" height="25.913">
    <g data-name="Grupo 382">
        <path data-name="Trazado 452" d="M39.411 14.592c.831-.022 1.407.54 1.187 1.341-.149.472-.612 1-1.072 1-.983 0-1.487-.64-1.271-1.412 0-.03-.019-.094.015-.121a1.135 1.135 0 0 1 1.142-.812"/>
        <path data-name="Trazado 453" d="M40.67 2.726a1.573 1.573 0 0 1 .632-.274 1.409 1.409 0 0 1 .973.135 1.274 1.274 0 0 1 .623.721c.314.818-.12 3.869-1.062 7.484-.627 2.322-.887 2.691-1.726 2.518a.914.914 0 0 1-.751-.436c-.35-.393-.314-.973.26-3.969.275-1.426.556-3.117.608-3.778a7.991 7.991 0 0 1 .444-2.4"/>
        <path data-name="Trazado 454" d="M2.208 15.441c.122-.882-1.31-2.352-1.692-3.383C-.342 9.572.061 6.413.369 3.779c.1-.385.2-.813.5-.758.449.083 2.006 1.074 2 1.872l-.164.609c-.113.914-.244 2.327-.228 2.708a.445.445 0 0 1 .006.152c-.117.537-.017 3.245.745 3.339.555-1.215.989-.795 1.708-1.706 2.169-2.8 3.254-4.161 5.423-6.764 0-.105 1.938-2.32 2.652-3.231h.038c.306.06 1.8.48 1.69 1.358a1.454 1.454 0 0 1-.275.586c-3.044 3.765-5.939 7.65-8.732 11.6a629.897 629.897 0 0 0-2.707 8.746 10.094 10.094 0 0 1-.116 1.766c-.039.364 0 1.788-.875 1.848-1.818.126-1.584-3.229-1.4-4.506.278-1.96 1.3-3.96 1.576-5.962"/>
        <path data-name="Trazado 455" d="m15.142 9.095.568-.044c2.51-.94 3.764-1.4 6.273-2.236.076-.008.455-.084.565-.093.476-.037 1.114.276 1.1.791a3.531 3.531 0 0 1-.3.795c-.844.562-2.205 1.473-2.281 1.484-2.677.923-4.015 1.426-6.692 2.439-1.754.765-2.466 3.794-2.566 5.445-.074 1.215.142 1.427 1.426 1.128 2.115-.493 4.836-2.684 6.459-3.788a2.813 2.813 0 0 1 .452-.127c.53-.079.617.034.6.565-.074 2.572-5.231 5.514-7.384 6.081a3.093 3.093 0 0 1-3.928-1.555 7.274 7.274 0 0 1-.139-2.248c.1-1.544.906-6.128 2.562-8.1a253.997 253.997 0 0 1 2.594-5.427c.036-.037.072-.073.033-.1.209-.387.279-.526.505-.542.68-.05.681-.341 1.346-.537a14.062 14.062 0 0 1 1.978-.454c.848-.195 5.065-1.027 5.889-1.1.785-.071 1.069.632 1.048 1.21-.023.638-.18.9-1.037 1.166-2.273.6-3.41.937-5.683 1.641-.067.021-.136.025-.2.043a5.893 5.893 0 0 1-2.1.318"/>
        <path data-name="Trazado 456" d="M26.501 12.384c-.05-1.353-1-2.589-1.086-3.908-.255-3.966 3.8-7.188 7.7-7.082 1.306.035 3.293.945 3.525 2.258.023.384-.316.364-.711.684-.5-.1-3.282-.641-3.7-.64-2.53.008-4.2 3.242-4.024 5.187.114 1.269.923 2.4 1.038 3.617a6.7 6.7 0 0 1-4.785 6.739c-.868.223-1.969.033-2.036-.882-.056-.772 4.266-.717 4.072-5.973"/>
    </g>
</svg>
