<svg xmlns="http://www.w3.org/2000/svg" width="15" height="11" viewBox="0 0 15 11">
  <g id="eye" transform="translate(0 -2)">
    <path id="Vector" d="M7.5,11A7.592,7.592,0,0,1,1.783,8.335,10.43,10.43,0,0,1,.491,6.528c-.114-.2-.218-.4-.311-.6C.147,5.855.121,5.8.1,5.755.095,5.737.089,5.722.085,5.711l0-.005L.077,5.693l0-.006L0,5.5l.074-.185L.2,5.364l-.121-.05,0-.006.006-.014c0-.012.011-.028.02-.049.018-.041.044-.1.078-.174.1-.2.2-.4.311-.6A10.44,10.44,0,0,1,1.783,2.666,7.589,7.589,0,0,1,7.5,0a7.594,7.594,0,0,1,5.718,2.666,10.269,10.269,0,0,1,1.291,1.806c.112.2.213.393.311.6.035.075.061.133.077.174l0,.011.016.038.006.014,0,.006L15,5.5l-.074.185-.437-.175c.4.161.434.175.436.177l-.008.019c0,.012-.012.029-.021.049-.017.041-.043.1-.077.174-.093.2-.2.4-.311.6a10.434,10.434,0,0,1-1.291,1.807A7.6,7.6,0,0,1,7.5,11Zm0-8A2.5,2.5,0,1,0,9.987,5.5,2.5,2.5,0,0,0,7.5,3Zm0,4A1.5,1.5,0,1,1,8.993,5.5,1.5,1.5,0,0,1,7.5,7Z" transform="translate(0 2)" fill="#909090"/>
  </g>
</svg>
