<svg xmlns="http://www.w3.org/2000/svg" width="14.481" height="14.481" viewBox="0 0 14.481 14.481">
  <g id="noun_Phone_1309869" transform="translate(-2.8 -2.8)">
    <path id="Trazado_606" data-name="Trazado 606" d="M6.051,3A3.058,3.058,0,0,0,3,6.051a11.019,11.019,0,0,0,10.692,11l.006.034h.332a3.049,3.049,0,0,0,3.008-3.558c0-.031-.01-.062-.017-.092a1.025,1.025,0,0,0-.657-.764h0L13.1,11.5a.82.82,0,0,0-.958.321L11.3,13.1A7.677,7.677,0,0,1,6.979,8.856c-.009-.023,0-.036.011-.046v0l1.287-.875a.821.821,0,0,0,.31-.949h0L7.416,3.72a1.027,1.027,0,0,0-.767-.66v0h0l-.093-.015A2.981,2.981,0,0,0,6.051,3Zm0,.782a2.2,2.2,0,0,1,.376.032h.006l.064.012a.241.241,0,0,1,.182.157L7.85,7.248h0a.031.031,0,0,1-.012.04l-1.285.875a.825.825,0,0,0-.3.984,8.461,8.461,0,0,0,4.894,4.762l0,0a.606.606,0,0,0,.714-.237l.938-1.426a.03.03,0,0,1,.04-.014L16.1,13.4a.239.239,0,0,1,.156.18l0,0v0c0,.019.008.039.011.058v0l0,0A2.274,2.274,0,0,1,14.03,16.3,10.243,10.243,0,0,1,3.782,6.051,2.265,2.265,0,0,1,6.051,3.782Z" fill="#909090" stroke="#909090" stroke-width="0.4"/>
  </g>
</svg>
