<svg width="15" height="8" viewBox="0 0 15 8" fill="none" xmlns="http://www.w3.org/2000/svg">
<path d="M0.493066 1.51761C0.490641 1.28397 0.570106 1.05686 0.717666 0.875695C0.800759 0.773733 0.903152 0.689165 1.01898 0.626835C1.1348 0.564506 1.26179 0.525638 1.39266 0.512459C1.52353 0.499281 1.65571 0.51205 1.78164 0.550035C1.90757 0.58802 2.02477 0.650474 2.12652 0.733821L7.52407 5.16851L12.8575 0.803429C12.9591 0.719504 13.0762 0.656483 13.2023 0.617988C13.3283 0.579494 13.4607 0.566284 13.5918 0.579119C13.7229 0.591954 13.8503 0.63058 13.9664 0.692777C14.0826 0.754975 14.1853 0.839518 14.2687 0.941545C14.3606 1.04424 14.4303 1.16482 14.4734 1.29573C14.5165 1.42663 14.532 1.56503 14.5191 1.70224C14.5062 1.83944 14.465 1.9725 14.3983 2.09305C14.3315 2.2136 14.2405 2.31904 14.131 2.40276L8.17191 7.28313C7.99422 7.43171 7.77046 7.51401 7.53884 7.51596C7.30723 7.51791 7.08212 7.4394 6.90195 7.29383L0.860046 2.34455C0.738188 2.24525 0.641453 2.11863 0.577692 1.97495C0.513931 1.83127 0.484938 1.67459 0.493066 1.51761Z" fill="black"/>
</svg>
