<svg xmlns="http://www.w3.org/2000/svg" width="18.582" height="18.582" viewBox="0 0 18.582 18.582">
  <g id="Grupo_658" data-name="Grupo 658" transform="translate(-18.799 -13.611)">
    <path id="Trazado_604" data-name="Trazado 604" d="M40.765,24.964H36.752v10.95h1.482V31.929h2.53a3.216,3.216,0,0,0,3.21-3.21v-.558A3.231,3.231,0,0,0,40.765,24.964Zm1.768,3.646a1.867,1.867,0,0,1-1.864,1.864H38.221v-4.04h2.449A1.867,1.867,0,0,1,42.533,28.3Z" transform="translate(-11.736 -7.422)" fill="#767676"/>
    <path id="Trazado_605" data-name="Trazado 605" d="M28.09,13.611A9.291,9.291,0,1,0,37.381,22.9,9.295,9.295,0,0,0,28.09,13.611ZM28.09,31a8.1,8.1,0,1,1,8.094-8.107A8.1,8.1,0,0,1,28.09,31Z" transform="translate(0 0)" fill="#767676"/>
  </g>
</svg>
