<svg xmlns="http://www.w3.org/2000/svg" width="16.637" height="22.942" viewBox="0 0 16.637 22.942">
  <g id="Grupo_656" data-name="Grupo 656" transform="translate(-18.596 -36.107)">
    <path id="Trazado_594" data-name="Trazado 594" d="M33.309,42.5a6.394,6.394,0,0,0-12.788,0v2.917a8.318,8.318,0,1,0,12.788,0Zm-6.394-4.995A5,5,0,0,1,31.91,42.5V44.1a8.256,8.256,0,0,0-9.99,0V42.5A5,5,0,0,1,26.915,37.505Zm0,20.145a6.92,6.92,0,1,1,6.92-6.92A6.928,6.928,0,0,1,26.915,57.651Z" transform="translate(0 0)" fill="#767676"/>
    <path id="Trazado_595" data-name="Trazado 595" d="M40.361,75.975a2.3,2.3,0,0,0-.7,4.5v.77a.7.7,0,0,0,1.4,0v-.77a2.3,2.3,0,0,0-.7-4.5Zm0,3.217a.909.909,0,1,1,.91-.909A.911.911,0,0,1,40.361,79.192Z" transform="translate(-13.446 -27.552)" fill="#767676"/>
  </g>
</svg>
