<svg xmlns="http://www.w3.org/2000/svg" width="21.188" height="19.247" viewBox="0 0 21.188 19.247">
  <g id="Grupo_704" data-name="Grupo 704" transform="translate(-15.331 -25.534)">
    <path id="Trazado_607" data-name="Trazado 607" d="M35.582,33.507a8.021,8.021,0,0,0-9.9-2.475l-4.7-4.7a1.876,1.876,0,0,0-1.2-.5H16.045a.381.381,0,0,0,0,.763h3.708a1.105,1.105,0,0,1,.687.278l4.782,4.781a.77.77,0,0,1,.1,1.011.7.7,0,0,1-.515.255.712.712,0,0,1-.534-.207L20.59,29.033a3.447,3.447,0,0,0-2.453-1.016H16.012a.381.381,0,1,0,0,.763h2.125a2.692,2.692,0,0,1,1.914.792l3.211,3.211a8.065,8.065,0,0,0-.617,10.346.381.381,0,0,0,.534.079L35.5,34.041A.381.381,0,0,0,35.582,33.507ZM23.038,42.363a7.3,7.3,0,0,1,.77-9.048,1.475,1.475,0,0,0,.967.37l.063,0a1.447,1.447,0,0,0,1.279-2.016,7.257,7.257,0,0,1,8.618,1.994Z" fill="#767676" stroke="#767676" stroke-width="0.6"/>
    <path id="Trazado_608" data-name="Trazado 608" d="M35.688,58.788a.381.381,0,0,0-.614.452l.885,1.2a.381.381,0,0,0,.614-.452Z" transform="translate(-9.517 -16.115)" fill="#767676" stroke="#767676" stroke-width="0.6"/>
    <path id="Trazado_609" data-name="Trazado 609" d="M40.778,57.093a.382.382,0,0,0-.615.452l1.151,1.564a.382.382,0,0,0,.615-.452Z" transform="translate(-12.017 -15.282)" fill="#767676" stroke="#767676" stroke-width="0.6"/>
    <path id="Trazado_610" data-name="Trazado 610" d="M44.621,52.211a.381.381,0,0,0-.614.452l.885,1.2a.381.381,0,0,0,.614-.452Z" transform="translate(-13.906 -12.884)" fill="#767676" stroke="#767676" stroke-width="0.6"/>
    <path id="Trazado_611" data-name="Trazado 611" d="M49.71,50.516a.381.381,0,1,0-.614.452l1.152,1.564a.381.381,0,1,0,.614-.452Z" transform="translate(-16.406 -12.051)" fill="#767676" stroke="#767676" stroke-width="0.6"/>
    <path id="Trazado_612" data-name="Trazado 612" d="M54.439,46.835l-.885-1.2a.381.381,0,0,0-.614.452l.885,1.2a.381.381,0,0,0,.614-.452Z" transform="translate(-18.295 -9.652)" fill="#767676" stroke="#767676" stroke-width="0.6"/>
  </g>
</svg>
