<svg xmlns="http://www.w3.org/2000/svg" width="24.762" height="24.759" viewBox="0 0 24.762 24.759">
  <path id="Trazado_437" data-name="Trazado 437" d="M134.055,316.871a1.125,1.125,0,0,0-1.508,0l-11.256,10.158a1.126,1.126,0,0,0-.371.833v12.353a1.125,1.125,0,0,0,1.125,1.125h7.879a1.126,1.126,0,0,0,1.126-1.125v-5.628h4.5v5.628a1.125,1.125,0,0,0,1.126,1.125h7.878a1.125,1.125,0,0,0,1.126-1.125V327.862a1.127,1.127,0,0,0-.372-.833Zm9.376,22.218H137.8v-5.628a1.125,1.125,0,0,0-1.125-1.125h-6.753a1.125,1.125,0,0,0-1.125,1.125v5.628h-5.628V328.363l10.13-9.145,10.13,9.145Z" transform="translate(-120.92 -316.581)" fill="currentColor"/>
</svg>
