<svg id="Grupo_344" data-name="Grupo 344" xmlns="http://www.w3.org/2000/svg" width="21.626" height="25.486" viewBox="0 0 21.626 25.486">
  <path id="Trazado_438" data-name="Trazado 438" d="M458.025,347.853a11.668,11.668,0,0,0-14.5,0,10.143,10.143,0,0,0-3.568,8.153.928.928,0,0,0,.925.925h19.776a.927.927,0,0,0,.925-.925A10.12,10.12,0,0,0,458.025,347.853Zm-16.175,7.229a8.19,8.19,0,0,1,2.861-5.808,9.83,9.83,0,0,1,12.131,0,8.177,8.177,0,0,1,2.861,5.808Z" transform="translate(-439.96 -331.446)" fill="currentColor"/>
  <path id="Trazado_439" data-name="Trazado 439" d="M456.353,327.2a6.105,6.105,0,1,0-6.105-6.1A6.112,6.112,0,0,0,456.353,327.2Zm0-10.36A4.255,4.255,0,1,1,452.1,321.1,4.261,4.261,0,0,1,456.353,316.843Z" transform="translate(-445.539 -314.993)" fill="currentColor"/>
</svg>
