<svg xmlns="http://www.w3.org/2000/svg" width="24.83" height="24.83" viewBox="0 0 24.83 24.83">
  <path id="Trazado_440" data-name="Trazado 440" d="M352.662,317.685h-3.1V316.65a1.035,1.035,0,0,0-2.069,0v1.035h-8.277V316.65a1.035,1.035,0,0,0-2.069,0v1.035h-3.1a3.1,3.1,0,0,0-3.1,3.1v16.554a3.1,3.1,0,0,0,3.1,3.1h18.623a3.1,3.1,0,0,0,3.1-3.1V320.789A3.1,3.1,0,0,0,352.662,317.685Zm-18.623,2.069h3.1v1.035a1.035,1.035,0,0,0,2.069,0v-1.035h8.277v1.035a1.035,1.035,0,1,0,2.069,0v-1.035h3.1a1.035,1.035,0,0,1,1.035,1.035v3.1H333.005v-3.1A1.035,1.035,0,0,1,334.04,319.754Zm18.623,18.623H334.04a1.035,1.035,0,0,1-1.034-1.035v-11.38H353.7v11.38A1.035,1.035,0,0,1,352.662,338.377Z" transform="translate(-330.936 -315.616)" fill="currentColor"/>
</svg>
