<svg xmlns="http://www.w3.org/2000/svg" viewBox="0 0 78.44 74.79"><defs><style>.cls-1{fill:currentColor;}</style></defs><g id="Capa_2" data-name="Capa 2"><g id="Layer_1" data-name="Layer 1"><path class="cls-1" d="M48.68,74.79a17.6,17.6,0,0,1-5-.75,16.66,16.66,0,0,1-9-6.31l-15-21.67L1.94,30.26C-.57,28-.65,24,1.74,21s6.44-3.74,9.18-1.75L29.33,32.68l-1.82,2.5L9.1,21.78c-1.38-1-3.61-.47-5,1.19S2.73,26.82,4,28L22,44l15.2,22a13.61,13.61,0,0,0,7.36,5.11,12.48,12.48,0,0,0,8-.06,5.44,5.44,0,0,0,1.67-1.42L69.86,42.48A7.92,7.92,0,0,0,67,31.66a10.1,10.1,0,0,0-13.22,2.77l-2.5-1.83A13.19,13.19,0,0,1,68.51,29a11,11,0,0,1,4,15.05L56.79,71.31l0,.07A8.49,8.49,0,0,1,54,73.74l-.09.05-.1,0A13.33,13.33,0,0,1,48.68,74.79Z"/><path class="cls-1" d="M42.18,54.33l-1.4-2c-2.45-3.44-4.56-6.39-6.26-8.76L37,41.8c1.37,1.9,3,4.19,4.88,6.81l3.78-6.55,2.68,1.55Z"/><path class="cls-1" d="M36,44.52H29.89a6.19,6.19,0,0,1,0-12.38H58.56a1.55,1.55,0,0,1,0,3.1H29.89a3.1,3.1,0,0,0,0,6.19H36a1.55,1.55,0,1,1,0,3.09Z"/><path class="cls-1" d="M59.29,44.52H36a1.55,1.55,0,0,1,0-3.09H59.29a3.27,3.27,0,0,0,.7-.08,1.55,1.55,0,0,1,.68,3A6.34,6.34,0,0,1,59.29,44.52Z"/><path class="cls-1" d="M68,27.85A10.42,10.42,0,1,1,78.44,17.44,10.42,10.42,0,0,1,68,27.85Zm0-17.73a7.32,7.32,0,1,0,7.32,7.32A7.33,7.33,0,0,0,68,10.12Z"/><path class="cls-1" d="M44.59,56.44a1.53,1.53,0,0,1-1.23-.61l-2.6-3.46a1.55,1.55,0,1,1,2.47-1.86L45.83,54a1.55,1.55,0,0,1-1.24,2.47Z"/><path class="cls-1" d="M34.86,34.35a1.55,1.55,0,0,1-1-2.75A16,16,0,1,0,7.8,19.12a1.55,1.55,0,1,1-3.09,0A19.12,19.12,0,1,1,35.83,34,1.55,1.55,0,0,1,34.86,34.35Z"/><path class="cls-1" d="M13.2,19.63a25.51,25.51,0,0,1-7.32-1,1.55,1.55,0,0,1,1-2.95,23.29,23.29,0,0,0,7.22.82,24.87,24.87,0,0,0,15.08-5.64,1.55,1.55,0,1,1,1.95,2.4A28.19,28.19,0,0,1,14,19.61Z"/><path class="cls-1" d="M19.54,28.91h-.17a1.55,1.55,0,0,1,.06-3.1h0c.08,0,8.35.1,12.62-4.78a1.55,1.55,0,0,1,2.33,2C29.47,28.68,20.91,28.91,19.54,28.91Z"/></g></g></svg>