<svg id="Grupo_465" data-name="Grupo 465" xmlns="http://www.w3.org/2000/svg" width="38.239" height="39.927" viewBox="0 0 38.239 39.927">
  <path id="Trazado_553" data-name="Trazado 553" d="M2296.13,825.227h.012a3.825,3.825,0,1,0,0-7.651h-.016a3.825,3.825,0,0,0,.005,7.651Zm-1.841-5.689a2.583,2.583,0,0,1,1.836-.752h.012a2.615,2.615,0,1,1,.005,5.23h-.008a2.626,2.626,0,0,1-1.844-4.478Z" transform="translate(-2278.219 -815.348)" fill='currentColor'/>
  <path id="Trazado_554" data-name="Trazado 554" d="M2299.671,830.273h-3.445a1.265,1.265,0,0,0-.09-.167,2.106,2.106,0,0,0-2.52-.867c-.238.059-3.325.635-5.52,1.034h-3.926v-2.786l.03,0c.492-.043.993-.083,1.479-.122,1.171-.093,2.38-.19,3.571-.346a16.332,16.332,0,0,0,2.83-.711,2.082,2.082,0,0,0,1.385-2.455,1.944,1.944,0,0,0-2.254-1.425c-.05,0-.1.011-.149.019l-.064.009c-.413.048-.831.1-1.235.16-.872.119-1.775.24-2.653.278-2.513.107-5.177.168-8.388.2h-.02a1.644,1.644,0,0,1-1.649-1.271c-.338-1.006-.678-2.031-1.007-3.023-.415-1.253-.845-2.551-1.277-3.824a6.063,6.063,0,0,0-.615-1.278,1.694,1.694,0,0,0-1.8-.828,1.862,1.862,0,0,0-1.714,1.469,3.6,3.6,0,0,0,.055,1.58c.312,1.127.643,2.267.965,3.369.384,1.325.784,2.695,1.149,4.046a7.333,7.333,0,0,0,2.326,3.772.286.286,0,0,1,.04.093c.012,1.026.012,2.06.011,3.083h-12.061a.847.847,0,1,0,0,1.694h12.058v1.115c0,.435,0,.846,0,.934v2.472q0,6.593,0,13.185a3.958,3.958,0,0,0,.063.811c.223,1.08,1.071,2.188,2.084,2.194a2.256,2.256,0,0,0,.594.08,2.359,2.359,0,0,0,1.34-.421,2.01,2.01,0,0,0,.9-1.534c0-.112.26-10.673.292-13.879a3.979,3.979,0,0,0,.854.1,4.316,4.316,0,0,0,.838-.088.066.066,0,0,0,.038,0l.134-.038c.123-.03.248-.066.376-.108.906-.257,2.276-.615,3.729-.994,4.842-1.264,8.331-2.2,9.128-2.748a1.958,1.958,0,0,0,.787-1.076h3.326a.847.847,0,1,0,0-1.694Zm-4.8,1.773c-.684.469-5.537,1.736-8.749,2.574-1.592.414-2.968.773-3.884,1.039h0l-.106.031h0l-.12.035a2.807,2.807,0,0,1-2.305-.42.605.605,0,0,0-.773.931,2.974,2.974,0,0,0,.325.221c-.008,2.094-.273,13.579-.3,14.3a.813.813,0,0,1-.38.587,1.115,1.115,0,0,1-.976.152.588.588,0,0,0-.243-.028h-.015c-.252,0-.769-.556-.907-1.228a2.874,2.874,0,0,1-.037-.566q0-6.593,0-13.185v-2.472c0-.088,0-.5,0-.935,0-.525,0-1.081,0-1.14v-.695c0-1.334.005-2.712-.01-4.07a1.4,1.4,0,0,0-.453-.989,6.182,6.182,0,0,1-1.955-3.179c-.37-1.363-.769-2.738-1.156-4.069-.319-1.1-.65-2.234-.96-3.353a2.388,2.388,0,0,1-.034-1.029c.023-.125.074-.383.746-.506a.487.487,0,0,1,.555.281,4.875,4.875,0,0,1,.494,1.022c.431,1.27.859,2.566,1.275,3.818.328.993.669,2.019,1.009,3.028a2.85,2.85,0,0,0,2.826,2.1c3.225-.027,5.9-.089,8.429-.2.934-.04,1.864-.166,2.764-.288.4-.055.81-.11,1.213-.158.034,0,.069-.01.1-.014s.051-.008.078-.01c.82-.074.937.375.975.524a.878.878,0,0,1-.587,1,15.11,15.11,0,0,1-2.615.664c-1.16.151-2.354.246-3.509.34-.485.039-.987.078-1.48.122l-.057-.523a.605.605,0,0,0-1.2.131l.118,1.083V831.7a.6.6,0,0,0,.71.6l1.169-.207c.821-.145,1.624-.288,2.427-.432,1.72-.309,6.391-1.17,6.666-1.246.668-.184.96.015,1.19.361C2295.129,830.776,2295.48,831.626,2294.872,832.046Z" transform="translate(-2262.279 -812.829)" fill='currentColor'/>
</svg>
