<svg xmlns="http://www.w3.org/2000/svg" viewBox="0 0 117.46 95.63"><defs><style>.cls-1{fill:currentColor;}</style></defs><g id="Capa_2" data-name="Capa 2"><g id="Layer_1" data-name="Layer 1"><rect class="cls-1" x="21.36" y="15.33" width="31.45" height="2.7"/><rect class="cls-1" x="64.54" y="15.33" width="23.33" height="2.7"/><rect class="cls-1" x="87.87" y="15.33" width="8.24" height="2.7"/><path class="cls-1" d="M18.05,30.28a4.63,4.63,0,0,1-4.62-4.63v-21a4.63,4.63,0,1,1,9.25,0v21A4.64,4.64,0,0,1,18.05,30.28Zm0-27.58a1.93,1.93,0,0,0-1.93,1.93v21a1.93,1.93,0,0,0,3.86,0v-21A1.92,1.92,0,0,0,18.05,2.7Z"/><path class="cls-1" d="M11.5,27a4.64,4.64,0,0,1-4.63-4.63V7.9a4.63,4.63,0,0,1,9.25,0V22.37A4.63,4.63,0,0,1,11.5,27Zm0-21A1.92,1.92,0,0,0,9.57,7.9V22.37a1.93,1.93,0,1,0,3.86,0V7.9A1.93,1.93,0,0,0,11.5,6Z"/><path class="cls-1" d="M99.36,30.28a4.64,4.64,0,0,1-4.63-4.63v-21a4.63,4.63,0,1,1,9.25,0v21A4.63,4.63,0,0,1,99.36,30.28Zm0-27.58a1.92,1.92,0,0,0-1.93,1.93v21a1.93,1.93,0,0,0,3.86,0v-21A1.93,1.93,0,0,0,99.36,2.7Z"/><path class="cls-1" d="M105.91,27a4.63,4.63,0,0,1-4.62-4.63V7.9a4.63,4.63,0,0,1,9.25,0V22.37A4.64,4.64,0,0,1,105.91,27Zm0-21A1.93,1.93,0,0,0,104,7.9V22.37a1.93,1.93,0,0,0,3.86,0V7.9A1.92,1.92,0,0,0,105.91,6Z"/><rect class="cls-1" x="66.65" y="11.13" width="29.43" height="2.7"/><rect class="cls-1" x="21.33" y="11.13" width="29.48" height="2.7"/><polygon class="cls-1" points="8.22 18.03 0 18.03 0 11.13 8.22 11.13 8.22 13.82 2.7 13.82 2.7 15.33 8.22 15.33 8.22 18.03"/><polygon class="cls-1" points="117.47 18.03 109.19 18.03 109.19 15.33 114.77 15.33 114.77 13.82 109.19 13.82 109.19 11.13 117.47 11.13 117.47 18.03"/><path class="cls-1" d="M65.58,18l-2.49-2.59a6.29,6.29,0,1,0-8.71,0L51.88,18a9.88,9.88,0,1,1,13.7,0Z"/><path class="cls-1" d="M58.73,20.74A9.83,9.83,0,0,1,51.88,18l2.5-2.59a6.29,6.29,0,0,0,8.71,0L65.58,18A9.83,9.83,0,0,1,58.73,20.74Z"/><path class="cls-1" d="M68.81,95.63h-.47a7.56,7.56,0,0,1-7-7.49V70.72L58.9,62.88,55.49,84.61a7.46,7.46,0,0,1-8.36,6.23,6.55,6.55,0,0,1-6.47-7.72l5-32.56c0-.74.16-6.67.27-13.14a5.72,5.72,0,0,1-7.89-.71l-.18-.21a5.9,5.9,0,0,1-.61-.87L28.57,20.52a5.72,5.72,0,0,1-.48-4.66L31.5,17a2.14,2.14,0,0,0,.18,1.73l8.73,15.12a2,2,0,0,0,.24.33l.07.09.07.09a2.13,2.13,0,0,0,3,.21l2.38-2.07a2.09,2.09,0,0,1,3.46,1.62c-.28,16.39-.34,16.76-.37,16.93l-5,32.63a3,3,0,0,0,3.06,3.57h.14l.14,0a3.83,3.83,0,0,0,4.38-3.21L56.34,56a2.07,2.07,0,0,1,4-.31L65,70.17v18A4,4,0,0,0,68.56,92a3.82,3.82,0,0,0,4-3.8c.06-6.46.11-16.77,0-19.09l0-.16C67.76,50,67.76,49.68,67.76,49.39V34a2.1,2.1,0,0,1,3.48-1.58l2.43,2.11a2.18,2.18,0,0,0,1.55.52,2.11,2.11,0,0,0,1.45-.73l.08-.09.07-.09a2,2,0,0,0,.24-.33l8.72-15.12a2.11,2.11,0,0,0,.16-1.8l3.38-1.24a5.75,5.75,0,0,1-.42,4.84L80.17,35.63a5.23,5.23,0,0,1-.61.87l-.17.21a5.74,5.74,0,0,1-8,.6V49.23c.28,1.36,2.88,11.65,4.59,18.35a2.57,2.57,0,0,1,.25.94c0,.17,0,.4,0,.71,0,.53,0,1.3,0,2.29,0,1.65,0,3.94,0,6.82,0,4.9-.06,9.85-.06,9.9a7.42,7.42,0,0,1-2.33,5.38A7.33,7.33,0,0,1,68.81,95.63ZM45.71,50.49v0Z"/><path class="cls-1" d="M74.55,29.68l-5.64-4.9c-.09-.08-.18-.17-.34-.34-3.11-3.2-4.36-3.36-4.58-3.36H53.41c-.22,0-1.47.16-4.51,3.35l-.34.35-5.64,4.9-7-12.1,3.12-1.8,4.8,8.32,2.31-2,.13-.14c1.83-1.92,4.55-4.47,7.12-4.47H64c2.54,0,5.3,2.54,7.16,4.45l.15.16,2.31,2,4.8-8.32,3.12,1.8ZM46.2,22.06h0Z"/></g></g></svg>