<svg xmlns="http://www.w3.org/2000/svg" viewBox="0 0 58.35 98.04"><defs><style>.cls-1{fill:currentColor;}</style></defs><g id="Capa_2" data-name="Capa 2"><g id="Layer_1" data-name="Layer 1"><path class="cls-1" d="M3.88,57.82a9.36,9.36,0,0,0,5.38,2.3h.19L8.27,63.81a5.7,5.7,0,0,0,.54,4.79,6.46,6.46,0,0,0,1.88,2H8.82a8,8,0,0,0-8,8V90.08a8,8,0,0,0,8,8H49.53a8,8,0,0,0,8-8V78.54a8,8,0,0,0-8-8H28A6.42,6.42,0,0,0,29,68.65l7.59-25.42a6.57,6.57,0,0,0-4.4-8.16,9.45,9.45,0,0,0-4.79.07l3.73-6.2a.79.79,0,0,1,.64-.39L53.77,27a5,5,0,0,0,2.83-8.74,4.79,4.79,0,0,0-3.49-1.15l-22.93.81c-1.71-.12-13.44-.77-16.56,4.63l-12,20.87a11.38,11.38,0,0,0,2.3,14.38ZM16.5,69a4.44,4.44,0,0,1-2.7.14,4,4,0,0,1-2.42-1.77,3.36,3.36,0,0,1-.31-2.8l1.5-4.64a11,11,0,0,0,3.88-1.69l2.43-1.68L16.39,64.9A6.47,6.47,0,0,0,16.5,69Zm38.07,9.56V90.08a5,5,0,0,1-5,5H8.82a5,5,0,0,1-5-5V78.54a5,5,0,0,1,5-5H49.53A5,5,0,0,1,54.57,78.54ZM4.11,44.9,16.16,24c1.71-3,9.42-3.51,13.88-3.17h.08l23.12-.82h.07a1.9,1.9,0,0,1,1.39.47,2,2,0,0,1-1.14,3.6l-22,1.52a3.74,3.74,0,0,0-2.95,1.8L22.1,38.19h0l-7.24,4.39a1.46,1.46,0,0,0,.76,2.71,1.5,1.5,0,0,0,.76-.21L28.11,38a6.57,6.57,0,0,1,3.19-.1,3.64,3.64,0,0,1,2.44,4.52L26.15,67.82a3.63,3.63,0,0,1-6.68.68,3.59,3.59,0,0,1-.28-2.76l4.87-16.32-9.27,6.39a7.85,7.85,0,0,1-5.24,1.4,6.45,6.45,0,0,1-3.73-1.58,8.72,8.72,0,0,1-2.2-3A8.61,8.61,0,0,1,4.11,44.9Z"/><path class="cls-1" d="M27.46,17.5a8.75,8.75,0,1,0-8.75-8.75A8.76,8.76,0,0,0,27.46,17.5Zm0-14.58a5.83,5.83,0,1,1-5.83,5.83A5.83,5.83,0,0,1,27.46,2.92Z"/></g></g></svg>