<svg id="Grupo_464" data-name="Grupo 464" xmlns="http://www.w3.org/2000/svg" width="22.747" height="42.153" viewBox="0 0 22.747 42.153">
  <path id="Trazado_551" data-name="Trazado 551" d="M2563.538,817.315a4.2,4.2,0,1,0-4.2-4.2A4.2,4.2,0,0,0,2563.538,817.315Zm0-7.081a2.885,2.885,0,1,1-2.885,2.884A2.888,2.888,0,0,1,2563.538,810.234Z" transform="translate(-2549.39 -808.922)" fill='currentColor'/>
  <path id="Trazado_552" data-name="Trazado 552" d="M2559.69,823.8a2.262,2.262,0,0,0-3.064.957l-1.467,2.815a.242.242,0,0,1-.386.06l-.978-.977a2.163,2.163,0,0,0-.4-.312,2.475,2.475,0,0,0-1.164-.555l-2.527-.466a2.912,2.912,0,0,0-.536-.049,2.943,2.943,0,0,0-1.144.231,2.5,2.5,0,0,0-.421.169l-6.882,3.558a2.443,2.443,0,0,0-1.194,1.375,2.416,2.416,0,0,0-.167.543l-1.177,6.6a2.45,2.45,0,0,0,1.967,2.854,2.367,2.367,0,0,0,.446.041,2.453,2.453,0,0,0,2.408-2.007l.988-5.578,1.425-.75-1.007,5.463a3.723,3.723,0,0,0-.062.657l-3.122,16.941a2.928,2.928,0,1,0,5.759,1.061l2.619-14.221-.049-.009,1.16-.742-.578,3.805a3.108,3.108,0,0,0,.379,2.136,2.448,2.448,0,0,0,2.133,1.245,2.534,2.534,0,0,0,1.606-.592,3.11,3.11,0,0,0,1.083-1.894l1.507-9.029a3.123,3.123,0,0,0-.38-2.145,2.5,2.5,0,0,0-1.716-1.208.657.657,0,0,0-.15-.008,3.149,3.149,0,0,0-1.306-.005l.233-1.266.305.306a2.265,2.265,0,0,0,.774.679,2.166,2.166,0,0,0,2.631-.333,2.263,2.263,0,0,0,.309-.391,2.368,2.368,0,0,0,.136-.227l2.94-5.643A2.3,2.3,0,0,0,2559.69,823.8Zm-5.646,22.142a1.8,1.8,0,0,1-.619,1.1,1.151,1.151,0,0,1-1.788-.312,1.8,1.8,0,0,1-.21-1.243l.774-5.093a.656.656,0,0,0-.036-.638.6.6,0,0,0-.056-.058.644.644,0,0,0-.1-.108c-.013-.01-.025-.021-.039-.029a.645.645,0,0,0-.881.108l-2.751,1.764a1.634,1.634,0,0,1-1.789-.117.655.655,0,0,0-.79,1.046,2.882,2.882,0,0,0,2.392.524l-2.452,13.313a1.617,1.617,0,0,1-2.976.541,1.659,1.659,0,0,1-.2-1.162l3.115-16.905.02-.111,0-.111a2.607,2.607,0,0,1,.041-.435l1.007-5.463.293-1.6a.513.513,0,0,0-.739-.55l-1.443.743-1.424.75-.3.154a.634.634,0,0,0-.332.448l-.061.329-.99,5.576a1.137,1.137,0,0,1-1.118.934,1.176,1.176,0,0,1-.21-.02,1.141,1.141,0,0,1-.915-1.327l1.178-6.6a1.155,1.155,0,0,1,.078-.253l.021-.047.018-.048a1.124,1.124,0,0,1,.555-.639l6.883-3.557a1.026,1.026,0,0,1,.2-.079l.067-.022.067-.028a1.629,1.629,0,0,1,.633-.129,1.736,1.736,0,0,1,.3.027l2.492.459a1.226,1.226,0,0,1,.774.472,1.167,1.167,0,0,1,.208.91l-1.056,5.935-4.538,2.62a.655.655,0,0,0,.328,1.223.643.643,0,0,0,.327-.088l4.968-2.868a1.727,1.727,0,0,1,2.378.512,1.507,1.507,0,0,1,.181,1,.67.67,0,0,0,.007.227Zm5.436-19.7-2.963,5.684a.728.728,0,0,1-.058.1l-.014.022-.014.023a.853.853,0,0,1-1.157.286l-.025-.014-.025-.014a.953.953,0,0,1-.326-.284l-.062-.088-.076-.078-.945-.944.374-2.034.668.669a.506.506,0,0,0,.805-.124l.508-.976,1.605-3.079a.989.989,0,0,1,.823-.542.958.958,0,0,1,.557.153.936.936,0,0,1,.314.335A.954.954,0,0,1,2559.48,826.244Z" transform="translate(-2538.139 -816.678)" fill='currentColor'/>
</svg>
