<svg fill='none' xmlns="http://www.w3.org/2000/svg"  width="26.208" height="26.205" viewBox="0 0 26.208 26.205">
  <g id="Grupo_467" fill='none' data-name="Grupo 467" transform="translate(-26.168 -134.52)">
    <path id="Trazado_558" data-name="Trazado 558" d="M2019.331,858.51h4.3a1.467,1.467,0,0,1,.84.2,1.368,1.368,0,0,1,.661,1.072c.006.069.009.138.009.207q0,4.323,0,8.645a1.4,1.4,0,0,1-.777,1.328,1.416,1.416,0,0,1-.678.147c-2.9,0-5.8,0-8.692,0a1.417,1.417,0,0,1-1.409-1.05,2.228,2.228,0,0,1-.048-.443q0-4.306,0-8.613a1.427,1.427,0,0,1,.771-1.351,1.525,1.525,0,0,1,.759-.148Zm0,1.033h-4.28c-.364,0-.475.112-.475.479V868.6c0,.37.107.478.472.478h8.593c.356,0,.47-.113.47-.466v-8.578c0-.377-.112-.489-.482-.49Z" transform="translate(-1987.366 -709.391)" fill="currentColor"/>
    <path id="Trazado_559" data-name="Trazado 559" d="M2025.139,833.2c0,1.438,0,2.876,0,4.314a1.379,1.379,0,0,1-.825,1.359,1.535,1.535,0,0,1-.634.126q-4.346.011-8.691,0a1.373,1.373,0,0,1-1.4-1.053,1.738,1.738,0,0,1-.05-.441q0-4.315,0-8.629a1.4,1.4,0,0,1,1.057-1.434,1.755,1.755,0,0,1,.427-.041c2.881,0,5.762.007,8.644-.007a1.428,1.428,0,0,1,1.439,1.091,2.226,2.226,0,0,1,.034.429q0,2.143,0,4.283m-10.565-.012v4.3c0,.362.119.485.474.485h8.58c.356,0,.48-.127.48-.482v-8.581c0-.363-.114-.477-.477-.477h-8.58c-.367,0-.478.109-.478.474v4.283" transform="translate(-1987.366 -692.882)" fill="currentColor"/>
    <path id="Trazado_560" data-name="Trazado 560" d="M2050.464,858.509q2.141,0,4.282,0a1.444,1.444,0,0,1,1.042.359,1.341,1.341,0,0,1,.439.81,2.469,2.469,0,0,1,.022.335q0,4.3,0,8.612a1.411,1.411,0,0,1-1.46,1.486q-4.346,0-8.692,0a1.419,1.419,0,0,1-1.4-1.039,2.135,2.135,0,0,1-.049-.443q-.005-4.322,0-8.644a1.381,1.381,0,0,1,1.073-1.435,1.923,1.923,0,0,1,.475-.041q2.133,0,4.266,0m-.022,10.568q2.156,0,4.312,0c.354,0,.469-.115.469-.469v-8.593c0-.349-.123-.471-.47-.471h-8.595c-.359,0-.474.117-.474.48V868.6c0,.365.111.475.476.475q2.141,0,4.282,0" transform="translate(-2003.877 -709.39)" fill="currentColor"/>
    <path id="Trazado_561" data-name="Trazado 561" d="M2050.465,827.409c1.438,0,2.876,0,4.313,0a1.384,1.384,0,0,1,1.333.793,1.967,1.967,0,0,1,.131.456.907.907,0,0,1,.01.206q0,4.339,0,8.677a1.435,1.435,0,0,1-.576,1.2,1.354,1.354,0,0,1-.868.268q-4.354,0-8.709,0a1.37,1.37,0,0,1-1.4-1.039,1.641,1.641,0,0,1-.053-.441q0-4.331,0-8.661a1.388,1.388,0,0,1,1.452-1.459c1.454,0,2.909,0,4.363,0m0,1.028h-4.314c-.344,0-.467.118-.467.456q0,4.306,0,8.612c0,.345.127.471.474.471h8.579c.357,0,.484-.127.484-.48v-8.579c0-.364-.116-.481-.476-.481Z" transform="translate(-2003.877 -692.885)" fill="currentColor"/>
  </g>
</svg>
