<svg id="Grupo_463" data-name="Grupo 463" xmlns="http://www.w3.org/2000/svg" width="33.331" height="35.037" viewBox="0 0 33.331 35.037">
  <path id="Trazado_549" data-name="Trazado 549" d="M2689.6,842.954l-4.792-1.767-4.378-6.108a3.54,3.54,0,0,0-2.921-1.8h-6.074a4.189,4.189,0,0,0-1.694.344.654.654,0,0,0-.131.07,3.313,3.313,0,0,0-1.217,1.244l-3.767,6.524-4.718,1.738a2.782,2.782,0,1,0,1.922,5.221l.5-.184a3.1,3.1,0,0,0-.7.892,3.155,3.155,0,0,0-.221.537.656.656,0,0,0-.067.168,3.091,3.091,0,0,0-.014,1.34c0,.023.009.047.014.07a3.123,3.123,0,0,0,1.752,2.168l9.831,4.452a3.129,3.129,0,0,0,3.405-.542.687.687,0,0,0,.2-.03l9.115-2.834c.038-.012.075-.028.113-.041.006,0,.012,0,.019,0l.056-.024c.074-.028.147-.059.218-.092l.026-.013a3.126,3.126,0,0,0,.768-5.108.564.564,0,0,0-.1-.062,3.108,3.108,0,0,0-.756-.485l-5.726-2.658-.033-1.674.966,1.016a2.846,2.846,0,0,0,.283.314,2.745,2.745,0,0,0,.989.626l5.21,1.924a2.782,2.782,0,0,0,1.927-5.22Zm-21.206,2.818c0,.061,0,.121,0,.181,0,.034,0,.071,0,.106l-1.218.379a2.785,2.785,0,0,0,.455-.241,2.647,2.647,0,0,0,.765-.644Zm21.582.286a1.424,1.424,0,0,1-1.833.845l-5.21-1.922a1.407,1.407,0,0,1-.51-.325l-.012-.011a1.355,1.355,0,0,1-.157-.175.642.642,0,0,0-.053-.064l-2.193-2.308a.677.677,0,0,0-1.167.48l.073,3.851a1.883,1.883,0,0,0,.716.741l5.791,2.688a1.775,1.775,0,0,1,.205,3.125l-.006,0a1.816,1.816,0,0,1-.225.109c-.052.022-.1.048-.156.065l-7.958,2.474a3.117,3.117,0,0,0-1.434-3.3l4.775-1.473a.678.678,0,1,0-.4-1.295l-1.8.554-.846-.346a.675.675,0,0,0-.548.019,13.126,13.126,0,0,1-2.931.318,18.568,18.568,0,0,1-3.268-.33.674.674,0,0,0-.434.055l-2.139-.969a.677.677,0,0,0-.559,1.234l7.25,3.283a1.777,1.777,0,0,1-1.466,3.237l-9.831-4.454a1.773,1.773,0,0,1-.952-1.067h0a1.774,1.774,0,0,1,1.167-2.221l5.452-1.7,0-.01a.677.677,0,0,0,.439-.732,3.142,3.142,0,0,1-.014-.471c0-.068,0-.135,0-.2v-2.679a.677.677,0,0,0-1.263-.337l-1.023,1.771a1.322,1.322,0,0,1-.509.5.511.511,0,0,0-.061.036,1.444,1.444,0,0,1-.316.164l-5.213,1.919a1.427,1.427,0,0,1-.986-2.678l4.949-1.823a.668.668,0,0,0,.352-.3l3.89-6.736a1.917,1.917,0,0,1,.738-.757,2.782,2.782,0,0,1,1.13-.224h6.074a2.292,2.292,0,0,1,1.8,1.2.237.237,0,0,0,.016.024l4.508,6.288a.673.673,0,0,0,.316.242l4.985,1.839A1.429,1.429,0,0,1,2689.976,846.058Zm-15.954,5.425-.032-.015h.076Z" transform="translate(-2658.089 -823.102)" fill='currentColor'/>
  <path id="Trazado_550" data-name="Trazado 550" d="M2686.924,821.369a4.884,4.884,0,1,0-4.884-4.885A4.89,4.89,0,0,0,2686.924,821.369Zm0-8.415a3.53,3.53,0,1,1-3.531,3.53A3.534,3.534,0,0,1,2686.924,812.955Z" transform="translate(-2670.799 -811.601)" fill='currentColor'/>
</svg>
